STARTFONT 2.1
COMMENT
COMMENT Converted from OpenType font "Font 90 Icons.ttf" by "otf2bdf 3.0".
COMMENT
FONT -FreeType-Font 90 Icons-Medium-R-Normal--57-410-100-100-P-210-ISO10646-1
SIZE 41 100 100
FONTBOUNDINGBOX 61 60 0 -12
STARTPROPERTIES 19
FOUNDRY "FreeType"
FAMILY_NAME "Font 90 Icons"
WEIGHT_NAME "Medium"
SLANT "R"
SETWIDTH_NAME "Normal"
ADD_STYLE_NAME ""
PIXEL_SIZE 57
POINT_SIZE 410
RESOLUTION_X 100
RESOLUTION_Y 100
SPACING "P"
AVERAGE_WIDTH 210
CHARSET_REGISTRY "ISO10646"
CHARSET_ENCODING "1"
FONT_ASCENT 47
FONT_DESCENT 11
COPYRIGHT "Typeface © (el-harrak.blogspot.com). <darrati10@gmail.com>. All Rights Reserved"
_OTF_FONTFILE "Font 90 Icons.ttf"
_OTF_PSNAME "Font 90 Icons"
ENDPROPERTIES
CHARS 242
STARTCHAR 0000
ENCODING 0
SWIDTH 0 0
DWIDTH 0 0
BBX 0 0 0 0
BITMAP
ENDCHAR
STARTCHAR 001D
ENCODING 29
SWIDTH 0 0
DWIDTH 0 0
BBX 0 0 0 0
BITMAP
ENDCHAR
STARTCHAR 0020
ENCODING 32
SWIDTH 245 0
DWIDTH 14 0
BBX 0 0 0 0
BITMAP
ENDCHAR
STARTCHAR 0021
ENCODING 33
SWIDTH 983 0
DWIDTH 56 0
BBX 55 55 0 -9
BITMAP
0000007E000000
00000FFFF00000
00007FF9FE0000
0001FFFF8F8000
0007FFFFE3C000
000FFFFFF8F000
003FFFFFFC3800
007FFFFFFC1C00
00FFFFFFFE0600
01FFFFFFFF0300
03FFFFFFFF0180
03FFFFE7FF00C0
07FFFF83FF0060
0FFFFF01FF8060
0FFFFF01FF8030
1FFFFF01FF8030
1FFFFF01FF8018
3FFFFF81FF0018
3FFFFFE7FF000C
3FFFFFFFFF000C
7FFFFFFFFE000C
7FFFFFFFFE0006
7FFFFFFFFC0006
7FFFFFFFF80006
7FFFFFFFF00006
FFFFFFFFE00006
FFFFFFFFC00006
FFFFFFFC000006
FFFFFF00000006
FFFFF800000006
FFFFF000000006
7FFFE000000006
7FFFC000000006
7FFF8000000006
7FFF0000000004
7FFF000000000C
3FFF000000000C
3FFE003C00000C
3FFE007E000018
1FFE00FE000018
1FFE00FE000030
0FFE00FE000070
07FE007E000060
07FE003C0000C0
03FF00000001C0
01FF0000000380
00FF0000000700
007F8000000E00
003FC000001C00
001FE000007800
000FF00000E000
0003F80003C000
0000FE001F0000
00003FFFFC0000
000007FFE00000
ENDCHAR
STARTCHAR 0022
ENCODING 34
SWIDTH 983 0
DWIDTH 56 0
BBX 55 44 0 -4
BITMAP
00000FFFF00000
00001FFFF80000
00001E00780000
00001C00380000
00001C00180000
00001800180000
00001800180000
07FFFFFFFFFFE0
3FFFFFFFFFFFFC
7FFFFFFFFFFFFC
7FFFFFFFFFFFFE
7FFFFFFFFFFFFE
FFFFFFFFFFFFFE
FFFFFFFFFFFFFE
FFFFFFFFFFFFFE
FFFFFFFFFFFFFE
FFFFFFFFFFFFFE
FFFFFFFFFFFFFE
FFFFFFFFFFFFFE
FFFFFFFFFFFFFE
FFFFFFFFFFFFFE
FFFFFFFFFFFFFE
FFFFFFFFFFFFFE
FFFFFFFFFFFFFE
FFFFFFFFFFFFFE
FFFFFFFFFFFFFE
FFFFFFFFFFFFFE
FFFFFFFFFFFFFE
FFFFFFFFFFFFFE
FFFFFFFFFFFFFE
FFFFFFFFFFFFFE
FFFFFFFFFFFFFE
FFFFFFFFFFFFFE
FFFFFFFFFFFFFE
FFFFFFFFFFFFFE
FFFFFFFFFFFFFE
FFFFFFFFFFFFFE
FFFFFFFFFFFFFE
FFFFFFFFFFFFFE
7FFFFFFFFFFFFE
7FFFFFFFFFFFFE
7FFFFFFFFFFFFC
3FFFFFFFFFFFFC
0FFFFFFFFFFFF0
ENDCHAR
STARTCHAR 0023
ENCODING 35
SWIDTH 983 0
DWIDTH 56 0
BBX 52 58 2 -12
BITMAP
0000FF80000000
0007FFF0000000
7C1FFFFE000000
FC7FFFFFC00000
FCFFFFFFF00100
FCFFFFFFFF8F00
7CFFFFFFFFFF00
7EFFFFFFFFFF00
7E7FFFFFFFFF00
7E7FFFFFFFFF00
7E7FFFFFFFFF00
7E7FFFFFFFFF80
3F7FFFFFFFFF80
3F7FFFFFFFFF80
3F3FFFFFFFFF80
3F3FFFFFFFFF80
3F3FFFFFFFFF80
1F3FFFFFFFFFC0
1FBFFFFFFFFFC0
1F9FFFFFFFFFC0
1F9FFFFFFFFFC0
1F9FFFFFFFFFC0
1F9FFFFFFFFFC0
0FDFFFFFFFFFC0
0FCFFFFFFFFFE0
0FCFFFFFFFFFE0
0FCFFFCFFFFFE0
0FCFF8007FFFE0
0FCFC0000FFFE0
07E7000003FFE0
07E6000000FFF0
07E40000003FF0
07E000000007E0
07E00000000000
03E00000000000
03F00000000000
03F00000000000
03F00000000000
03F00000000000
03F00000000000
01F80000000000
01F80000000000
01F80000000000
01F80000000000
01F80000000000
00F80000000000
00FC0000000000
00FC0000000000
00FC0000000000
00FC0000000000
00FC0000000000
007E0000000000
007E0000000000
007E0000000000
007E0000000000
007E0000000000
007E0000000000
003C0000000000
ENDCHAR
STARTCHAR 0024
ENCODING 36
SWIDTH 983 0
DWIDTH 56 0
BBX 55 54 0 -8
BITMAP
01FC0000000000
03FE0000000000
07FF0000000000
0FFF0000000000
1FFF8000000000
3FFFC000000000
7FFFE000000000
7FFFF000000000
FFFFF800000000
FFFFFE00000000
FFFFFF00000000
7FFFFF80000000
7FFFFFC0000000
3FFFFFE0000000
1FFFFFD8000000
0FFFFFBC000000
07FFFF7E000000
03FFFEFF800000
01FFFDFFC00000
00FFFBFFE00000
007FFFFF800000
003FFFFF000000
001FFFFE000000
000FFFFC000000
0007FFF8000000
0007FFF0000000
0003FFE8000000
0001FFDC000000
0000FF9E000000
0000FF0F000000
00007E07800000
00003C01C00000
00001800E00000
00000800700000
00000000380000
000000001C0000
000000000E0000
00000000070000
00000000030000
00000000018000
0000000000C000
00000000006000
00000000003000
00000000001800
00000000000400
00000000000200
00000000000100
00000000000080
00000000000040
00000000000020
00000000000010
00000000000008
00000000000004
00000000000002
ENDCHAR
STARTCHAR 0025
ENCODING 37
SWIDTH 983 0
DWIDTH 56 0
BBX 52 58 2 -11
BITMAP
000001F8000000
000003FC000000
000007FC000000
000007FC000000
000007FE000000
000007FE000000
00003FFFC00000
0000FFFFF00000
0003FFFFFC0000
000FFFFFFF0000
001FFFFFFF8000
003FFFFFFFC000
3E7FFFFFFFEFC0
7FFFF3F8FFFFE0
FFFFC1F83FFFE0
FFFF01F80FFFF0
FFFE01F007FFF0
FFFC01F003FFF0
FFFE00F007FFE0
7FFE00E00FFFE0
3FFF00E01FFF80
1FFF80E03FFF00
1FFFC0E07FFF80
1FFFE0E0FFFF80
1FDFF9F3FF3F80
3FC1FFFFF03F80
3F801FFF803FC0
3F800FFF001FC0
3F8007FE001FC0
3F8007FE001FC0
3F800FFF001FC0
3F803FFFC03FC0
3FC1FFFFF83F80
1FDFF9F1FFBF80
1FFFF0F0FFFF80
1FFFE0F07FFF80
1FFF80F03FFF80
3FFF00F01FFFC0
7FFE00F00FFFE0
FFFC01F007FFF0
FFFC01F003FFF0
FFFE01F807FFF0
FFFF01F80FFFF0
7FFFC3F83FFFE0
7FFFF3F8FFFFE0
1C7FFFFFFFE380
003FFFFFFFC000
001FFFFFFF8000
000FFFFFFE0000
0003FFFFFC0000
0000FFFFF00000
00003FFF800000
000007FE000000
000007FC000000
000007FC000000
000003FC000000
000003F8000000
000001F0000000
ENDCHAR
STARTCHAR 0026
ENCODING 38
SWIDTH 983 0
DWIDTH 56 0
BBX 55 55 0 -9
BITMAP
00000038000000
00000FFFF00000
00007FFFFC0000
0001FFFFFF8000
0007FC003FC000
000FE00007F000
001F000001F800
007E0000007C00
00F803FFC03E00
01F01FFFF00F00
01E07FFFFC0780
03C0FFFFFF03C0
0781FFFFFF83E0
0F03FFFFFFC1E0
0F07FFFFFFE0F0
1E0FFFFFFFF070
1C1FFFFFFFF878
3C3FBFFFFFF838
3C3F1FFFFFFC3C
387F8FFFF7FC3C
787FC7FFE3FE1C
707FE3FFC7FE1C
70FFF1FF8FFE1E
70FFF8FF1FFF0E
70FFFC7E3FFF0E
F0FFFE3C7FFF0E
F0FFFF18FFFF0E
F0FFFF81FFFF0E
F0FFFFC3FFFF0E
F0FFFFC3FFFF0E
70FFFFC3FFFF0E
70FFFFFFFFFF0E
70FFFFFFFFFE0E
70FFFFFFFFFE1E
787FFFFFFFFE1C
787FFFFFFFFC1C
383FFFFFFFFC3C
3C3FFFFFFFFC38
1C1FFFFFFFF878
1E1FFFFFFFF078
0E0FFFFFFFE0F0
0F07FFFFFFE0F0
0783FFFFFFC1E0
0781FFFFFF03C0
03C0FFFFFE07C0
01E03FFFFC0F80
00F00FFFE01F00
007C01FF003E00
003E000000FC00
001F800003F800
000FF0000FE000
0003FE00FFC000
0000FFFFFF0000
00003FFFF80000
000003FFC00000
ENDCHAR
STARTCHAR 0027
ENCODING 39
SWIDTH 983 0
DWIDTH 56 0
BBX 54 56 1 -10
BITMAP
00003F00000000
0003FFF0000000
001FFFFC000000
003FFFFF000000
00FFFFFFC00000
01FFFFFFE00000
03FFFFFFF00000
07FFFFFFF80000
0FFFFFFFFC0000
1FFF003FFC0000
1FFC000FFE0000
3FF80807FF0000
3FE01E03FF0000
7FE03E01FF8000
7FC03F00FF8000
FF803F00FF8000
FF803F007FC000
FF003F007FC000
FF003F003FC000
FF0FFFFC3FC000
FF1FFFFE3FC000
FF1FFFFE3FC000
FF1FFFFE3FC000
FF0FFFFC3FC000
FF003F003FC000
FF003F007FC000
FF803F007FC000
FF803F007F8000
7FC03F00FF8000
7FC03E01FF8000
7FE01E01FF0000
3FF00C03FF0000
3FF8000FFF0000
1FFE001FFF8000
0FFFC0FFFFC000
07FFFFFFFFE000
03FFFFFFFFF000
01FFFFFFFFF800
00FFFFFFFFFC00
007FFFFFFFFE00
001FFFFFFFFF00
0007FFFBFFFF80
0000FFC1FFFFC0
00000000FFFFE0
000000007FFFF0
000000003FFFF8
000000001FFFF8
000000000FFFFC
0000000007FFFC
0000000003FFFC
0000000001FFFC
0000000000FFFC
00000000007FF8
00000000003FF0
00000000000FE0
00000000000380
ENDCHAR
STARTCHAR 0028
ENCODING 40
SWIDTH 983 0
DWIDTH 56 0
BBX 55 56 0 -10
BITMAP
00007FE0000000
0003FFFC000000
000FFFFF000000
003FFFFFC00000
007FFFFFE00000
01FFFFFFF00000
03FFFFFFF80000
03FFFFFFFC0000
07FFE07FFE0000
0FFF000FFF0000
1FFC0007FF0000
1FF80001FF8000
3FF00000FF8000
3FE00000FFC000
3FE000007FC000
7FC000003FE000
7FC000003FE000
7F8000001FE000
7F8000001FE000
7F8FFFFE1FE000
FF8FFFFF1FE000
FF8FFFFF1FE000
FF8FFFFE1FE000
7F87FFFE1FE000
7F8000001FE000
7F8000003FE000
7FC000003FE000
7FC000003FC000
3FE000007FC000
3FF00000FFC000
3FF00001FF8000
1FF80003FF8000
0FFE0007FFC000
0FFF801FFFE000
07FFF9FFFFF000
03FFFFFFFFF800
01FFFFFFFFFC00
00FFFFFFFFFE00
007FFFFFFFFF00
003FFFFFFFFF80
000FFFFFFFFFC0
0003FFF8FFFFE0
00003FC07FFFF0
000000003FFFF8
000000001FFFF8
000000000FFFFC
0000000007FFFE
0000000003FFFE
0000000001FFFE
0000000000FFFE
00000000007FFE
00000000003FFE
00000000001FFC
00000000000FF8
000000000007F0
00000000000080
ENDCHAR
STARTCHAR 0029
ENCODING 41
SWIDTH 983 0
DWIDTH 56 0
BBX 54 42 1 -3
BITMAP
3FFFFFFFFFFFE0
7FFFFFFFFFFFF8
FFFFFFFFFFFFFC
FFFFFFFFFFFFFC
FC0000000000FC
FE0000000001FC
FF0000000003FC
FF8000000007DC
EFC00000000F9C
E7E00000001F1C
E3F00000003E1C
E1F80000007C1C
E0FC000000F81C
E07E000001F01C
E03F000003E01C
E01F800007C01C
E00FC0000F801C
E003E0001F001C
E001F0003E001C
E000F8007C001C
E0007C00F8001C
E0007E01F8001C
E000FF03FC001C
E001FF8FFE001C
E003EFFFDF001C
E007C7FF8F801C
E00F83FF07C01C
E01F00FC03E01C
E03E000001F01C
E07C000000F81C
E0F80000007C1C
E1F00000003E1C
E3E00000001F1C
E7C00000000F9C
EF8000000007DC
FF0000000003FC
FE0000000001FC
FC0000000000FC
FFFFFFFFFFFFFC
FFFFFFFFFFFFFC
FFFFFFFFFFFFFC
3FFFFFFFFFFFE0
ENDCHAR
STARTCHAR 002A
ENCODING 42
SWIDTH 983 0
DWIDTH 56 0
BBX 48 58 4 -11
BITMAP
000007E00000
00000FE00000
00000FE00000
00000FE00000
00000FE00000
00000FE00000
00000FE00000
00000FE00000
00000FE00000
00000FE00000
00000FE00000
00000FE00000
00000FE00000
00000FE00000
00300FE01800
007C0FE0FC00
007F0FE3FC00
007FCFEFFC00
007FFFFFFC00
003FFFFFF800
001FFFFFF000
000FFFFFE000
0007FFFFC000
3FFBFFFFBFF8
3FFDFFFF7FFC
1FFEFFFEFFF8
CFFF7FFDFFF2
E7FFBFFBFFE7
F3FFDFF7FFCF
F9FFEFEFFF9F
FCFFF7DFFF3F
FE7FFB3FFE7F
FF3FFEFFFCFF
FF9FFFFFF9FF
FFCFFFFFF3FF
FFE7FFFFE7FF
FFF3FFFFCFFF
FFF9FFFF9FFF
FFFCFFFF3FFF
FFFE7FFE7FFF
FFFF3FFCFFFF
FFFF1FF8FFFF
FFFECFF37FFF
FFFDE7E7BFFF
FFFBF3CFDFFF
FFF7F81FEFFF
FFEFFFFFF7FF
FFDFFFFFFBFF
FFBFFFFFFDFF
FF7FFFFFFEFF
FEFFFFFFFF7F
FDFFFFFFFFBF
FBFFFFFFFFDF
F7FFFFFFFFEF
EFFFFFFFFFF7
DFFFFFFFFFFA
3FFFFFFFFFFC
3FFFFFFFFFFC
ENDCHAR
STARTCHAR 002B
ENCODING 43
SWIDTH 983 0
DWIDTH 56 0
BBX 54 54 1 -9
BITMAP
FFFFFFFFFFFFFC
FFFFFFFFFFFFFC
FFFFFFFFFFFFFC
FFFFFFFFFFFFFC
FFFFFFFFFFFFFC
FFFFFFFFFFFFFC
FFFFFFFFFFFFFC
FC003FFFF000FC
FC007FFFF800FC
FC00FFFFFC00FC
FC01FFFFFE00FC
FC00FFFFFC00FC
FC007FFFF800FC
FC003FFFF000FC
FC001FFFE000FC
FC000FFFC000FC
FC601FFFE018FC
FCF03FFFF03CFC
FDF87FFFF87EFC
FFFCFFFFFCFFFC
FFFFFFFFFFFFFC
FFFFFFFFFFFFFC
FFFFFFFFFFFFFC
FFFFFFFFFFFFFC
FFFFFFFFFFFFFC
FFFFFFFFFFFFFC
FFFFFFFFFFFFFC
FFFFFFFFFFFFFC
FFFFFFFFFFFFFC
FFFFFFFFFFFFFC
FFFFFFFFFFFFFC
FFFFFFFFFFFFFC
FFFFFFFFFFFFFC
FFFDFFFFFFFFFC
FFF8FFFFFCFEFC
FDF07FFFF87CFC
FCE03FFFF038FC
FC401FFFE010FC
FC001FFFE000FC
FC003FFFF000FC
FC007FFFF800FC
FC00FFFFFC00FC
FC01FFFFFE00FC
FC01FFFFFC00FC
FC00FFFFF800FC
FC007FFFF000FC
FC007FFFF800FC
FFFFFFFFFFFFFC
FFFFFFFFFFFFFC
FFFFFFFFFFFFFC
FFFFFFFFFFFFFC
FFFFFFFFFFFFFC
FFFFFFFFFFFFFC
FFFFFFFFFFFFFC
ENDCHAR
STARTCHAR 002C
ENCODING 44
SWIDTH 983 0
DWIDTH 56 0
BBX 55 54 0 -9
BITMAP
0000000000FE00
000000003FFF00
00000001FFFF80
00000003FFFFC0
00000007FFFFE0
0000000FFFFFF0
0000001FFFFFF8
0000003FFFFFFC
0000007FFFE3FE
000000FFFFC1FE
000001FFFF80FE
000003FFFF81FE
000007FFFFC3FE
00000FFFFFE7FC
00001FFFFFFFFC
00003FFFFFFFFC
00007FFFFFFFFC
0000FFFFFFFFFC
0001FFFFFFFFFC
0003FFFFFFFFF8
0007FFFFFFFFF8
000FFFFFFFFFF8
001FFFFFFFFFF8
003F3FFFFFFFF0
007E1FFFFFFFE0
00FF0FFFFFFFC0
01FF87FFFFFF80
03F3C3FFFFFF00
07E1E1FFFFFE00
0FF0F0FFFFFC00
1FF8787FFFF800
3FFC3C3FFFF000
FFFE1E1FFFE000
7FFF0F0FFFC000
3FFF8787FF8000
1FFFC3C3FF0000
0FFFE1E1FE0000
07FFF0F0FC0000
03FFF879F80000
01FFFC3FF00000
00FFFE1FE00000
007FFF0FC00000
003FFF9F800000
001FFFFF000000
000FFFFE000000
0007FFFC000000
0003FFF8000000
0001FFF0000000
0000FFE0000000
00007FC0000000
00003F80000000
00001F00000000
00000E00000000
00000400000000
ENDCHAR
STARTCHAR 002D
ENCODING 45
SWIDTH 983 0
DWIDTH 56 0
BBX 55 55 0 -9
BITMAP
00000038000000
00000FFFE00000
00007FFFFC0000
0001FFFFFF0000
0007FE007FC000
000FE0000FF000
001F800001F800
007E000000FC00
00FC0000003E00
01F80000001F00
01F00000000F80
03F800000C07C0
07DC00001C03E0
0F8E00003C01E0
0F0700007C00F0
1E038000FC00F0
1E01C001FC0078
3C00E003FC0078
3C007003FC003C
38003807FC003C
7800000FFC001C
78007FFFFC001C
78007FFFFC001E
70007FFFFC001E
70007FFFFC001E
70007FFFFC000E
F0007FFFFC000E
F0007FFFFC000E
F0007FFFFC000E
F0007FFFFC000E
70007FFFFC000E
70007FFFFC001E
70007FFFFC001E
78007FFFFC001E
78003FFFFC001C
3800000FFC003C
3C000007FC003C
3C000003FC0038
1C000001FC8078
1E000000FC8078
1F0000007CC0F0
0F0000003CE1F0
078000001C71E0
07C000001C3BC0
03E000000C1FC0
01F00000000F80
00F80000001F00
007C0000007E00
003F000000FC00
001FC00003F800
000FF0001FE000
0003FF01FFC000
0000FFFFFF0000
00003FFFFC0000
000007FFC00000
ENDCHAR
STARTCHAR 002E
ENCODING 46
SWIDTH 983 0
DWIDTH 56 0
BBX 48 58 4 -11
BITMAP
0FFFFFFFFFF8
0FFFFFFFFFFC
0E000000001C
0E000000001C
0E000000001C
0E000000001C
0E000000001C
0E000000001C
0E000000001C
0E000000001C
0E000000001C
0E000000001C
0E000000001C
0E000000001C
0E000000001C
0E000000001C
0E000000001C
0E000000001C
0E000000001C
0E000000001C
0E000000001C
0E000000001C
0E000000001C
0E000000001C
0E000000001C
0E000000001C
0E000000001C
0E000000003C
0FFFFFFFFFFC
07FFFFFFFFF8
000000000000
000000000000
07FFFFFFFFF8
0FFFFFFFFFF8
0FFFFFFFFFFC
0FFFFFFFFFFC
0FFFFFFC00FC
0FFFFFFC00FC
0FFFFFFE00FC
0FFFFFFFFFFC
0FFFFFFFFFFC
0FFFFFFFFFFC
0FFFFFFFFFFC
0FFFFFFFFFF8
000001C00000
000001C00000
000001C00000
000001C00000
000001C00000
000001C00000
000001C00000
0001FFFF8000
0001FFFF8000
0001FFFF8000
FFFFFFFFFFFF
FFFFFFFFFFFF
7FFFFFFFFFFE
0001FFFF8000
ENDCHAR
STARTCHAR 002F
ENCODING 47
SWIDTH 983 0
DWIDTH 56 0
BBX 55 56 0 -10
BITMAP
010000FF000180
038003FFC001C0
03C007FFE003C0
03C00FFFF00780
01E01FFFF80780
01E03FFFF80F00
00F03FFFFC0F00
20F03FFFFC0F04
70F03FFFFC1E0E
70F83FFFFC1E1E
78783FFFFC1E1E
78783FFFFC3E1C
78783FFFFC3C3C
3C7C3FFFFC3C3C
3C7C3FFFFC3C3C
3C3C3FFFFC3C3C
3C3C3FFFFC7C78
3C3C3FFFFC7C78
3E3C3FFFFC7C78
3E3E3FFFFC7C78
1E3E3FFFFC7C78
1E3E3FFFFC7878
1E3E3FFFFC7878
1E3E3FFFFC7878
1E3E3FFFFC7878
3E3E3FFFFC7C78
3E3E3FFFFC7C78
3E3C3FFFFC7C78
3C3C3FFFFC7C78
3C3C3FFFFC7C78
3C3C3FFFFC3C3C
3C7C3FFFFC3C3C
387C3FFFFC3C3C
78783FFFFC3E3C
78783FFFFC3E1E
78783FFFFC1E1E
70F03FFFF81E0E
F0F01FFFF81F0E
60F01FFFF00F06
01E00FFFF00F00
01E007FFE00780
01C003FF800780
03C001FF800380
038001FF8003C0
038001FF8001C0
000001FF800000
000001FF800000
000001FF800000
000001FF800000
000001FF800000
000001FF800000
000001FF800000
000001FF800000
000001FF800000
000001FF000000
000000FF000000
ENDCHAR
STARTCHAR 0030
ENCODING 48
SWIDTH 983 0
DWIDTH 56 0
BBX 55 55 0 -9
BITMAP
00000010000000
00000FFFE00000
00007FFFFC0000
0001FFFFFF0000
0007FFFFFFC000
000FFFFFFFF000
001FFFFFFFF800
003FFFFFFFFC00
00FFFFFFFFFE00
00FFFFFFFFFF00
01FF3FFFFCFF80
03FE3FFFF87FC0
07F81FFFF83FE0
0FF00FFFF01FE0
0FF00FFFE00FF0
1FE007FFE007F0
1FC007FFC003F8
3F8003FFC003F8
3F8003FF8001FC
3F0001FF8001FC
7F0000FF0000FC
7F0000FF0000FC
7E0001FF8000FE
7E0003FFC000FE
7E0007C3C0007E
7E000781E0007E
FE000F00E0007E
FE000F00E0007E
FFFFFF00FFFFFE
FFFFFF01FFFFFE
7FFFFF01FFFFFE
7FFFFFC3FFFFFE
7FFFFFFFFFFFFE
7FFFFFFFFFFFFE
7FFFFF7EFFFFFC
7FFFFE00FFFFFC
3FFFFE007FFFFC
3FFFFC007FFFFC
3FFFFC003FFFF8
1FFFF8003FFFF8
1FFFF0001FFFF0
0FFFF0000FFFF0
07FFE0000FFFE0
07FFE00007FFC0
03FFC00007FFC0
01FF800003FF80
00FFC00007FF00
007FF0001FFE00
003FFF00FFFC00
001FFFFFFFF800
000FFFFFFFF000
0003FFFFFFC000
0001FFFFFF0000
00003FFFFC0000
000007FFE00000
ENDCHAR
STARTCHAR 0031
ENCODING 49
SWIDTH 983 0
DWIDTH 56 0
BBX 53 58 1 -11
BITMAP
000003FF000000
000007FF800000
000007FF800000
000007FF800000
000007FF800000
000007FF800000
000047FF800000
000187FF8E0000
000787FF8F0000
000F87FF8FC000
003F87FF8FE000
007F87FF8FF000
00FF87FF8FFC00
01FF87FF8FFE00
03FF87FF8FFE00
07FF87FF87FF00
07FF07FF83FF80
0FFC07FF81FFC0
1FF807FF80FFC0
1FF007FF807FE0
3FF007FF803FE0
3FE007FF801FF0
3FC007FF801FF0
7FC007FF800FF0
7F8007FF800FF8
7F8007FF8007F8
7F8007FF8007F8
FF0007FF8007F8
FF0007FF8007F8
FF0007FF8007F8
FF0007FF8007F8
FF0007FF0007F8
FF0003FE0007F8
FF0000000007F8
FF0000000007F8
FF0000000007F8
7F8000000007F8
7F800000000FF8
7F800000000FF0
7FC00000000FF0
3FC00000001FF0
3FE00000001FE0
3FF00000003FE0
1FF00000007FE0
1FF8000000FFC0
0FFC000001FF80
07FF000003FF80
07FF80000FFF00
03FFE0001FFE00
01FFFC00FFFC00
00FFFFFFFFF800
007FFFFFFFF000
003FFFFFFFE000
000FFFFFFFC000
0007FFFFFF0000
0001FFFFFC0000
00007FFFF00000
000007FF800000
ENDCHAR
STARTCHAR 0032
ENCODING 50
SWIDTH 983 0
DWIDTH 56 0
BBX 52 58 2 -11
BITMAP
000001F8000000
000003FC000000
000007FC000000
000007FC000000
000007FE000000
000007FC000000
000007FC000000
000007FC000000
000007FC000000
000007FC000000
000003FC000000
000003F8000000
3E0003F8000FC0
7F8003F8001FE0
FFC001F8007FE0
FFE001F000FFF0
FFF801F001FFF0
FFF801F003FFF0
FFFC00F007FFE0
7FFE00E00FFFE0
3FFF00E01FFF80
1FFF80E03FFF00
07FFC0E07FFC00
00FFE0E0FFE000
001FF9F3FF0000
0001FFFFF00000
00003FFF800000
00000FFF000000
000007FE000000
000007FE000000
00000FFF000000
00003FFF800000
0001FFFFF80000
001FFDF1FF8000
00FFF0F0FFF000
07FFC0E07FFE00
1FFF80F03FFF80
3FFF00F01FFFC0
7FFE00F00FFFE0
FFFC01F007FFF0
FFF801F003FFF0
FFF001F801FFF0
FFE001F800FFF0
FFC003F8003FE0
7F0003F8001FE0
3C0003FC000780
000003FC000000
000007FC000000
000007FC000000
000007FC000000
000007FC000000
000007FE000000
000007FC000000
000007FC000000
000007FC000000
000003FC000000
000003F8000000
000001F0000000
ENDCHAR
STARTCHAR 0033
ENCODING 51
SWIDTH 983 0
DWIDTH 56 0
BBX 54 52 1 -8
BITMAP
00000020000000
00000030000000
00000030000000
00000078000000
00000078000000
000000FC000000
000000FC000000
000001FE000000
000001FE000000
000003FF000000
000003FF000000
000007FF800000
000007FF800000
00000FFFC00000
00000FFFC00000
00001FFFE00000
00001FFFE00000
0001FFFFFE0000
00FFFFFFFFFC00
7FFFFFFFFFFFF4
FFFFFFFFFFFFF8
7FFFFFFFFFFFF0
3FFFFFFFFFFFE0
1FFFFFFFFFFFC0
0FFFFFFFFFFF80
07FFFFFFFFFF00
03FFFFFFFFFE00
01FFFFFFFFFC00
00FFFFFFFFF800
007FFFFFFFF000
001FFFFFFFE000
000FFFFFFFC000
0007FFFFFF8000
0007FFFFFF8000
0007FFFFFF8000
0007FFFFFF8000
0007FFFFFF8000
000FFFFFFF8000
000FFFFFFF8000
000FFFFFFFC000
000FFFFFFFC000
000FFFFFFFC000
000FFFFFFFC000
001FFFCFFFC000
001FFF03FFC000
001FFC00FFE000
001FF0007FE000
001FC0001FE000
001F000007E000
003C000001E000
00300000006000
00200000001000
ENDCHAR
STARTCHAR 0034
ENCODING 52
SWIDTH 983 0
DWIDTH 56 0
BBX 55 40 0 -2
BITMAP
1FFFFFFFFFFFF0
1FFFFFFFFFFFF8
0FFFFFFFFFFFF0
07FFFFFFFFFFE0
63FFFFFFFFFFCE
F1FFFFFFFFFF9E
F8FFFFFFFFFF3E
FE7FFFFFFFFE7E
FF3FFFFFFFFCFE
FF9FFFFFFFF9FE
FFCFFFFFFFF3FE
FFE7FFFFFFE7FE
FFF3FFFFFFCFFE
FFF9FFFFFF9FFE
FFFCFFFFFF3FFE
FFFE7FFFFE7FFE
FFFF3FFFFCFFFE
FFFF9FFFF9FFFE
FFFFCFFFF3FFFE
FFFFC7FFE7FFFE
FFFFE3FFC7FFFE
FFFFC1FF83FFFE
FFFFB8FF39FFFE
FFFF7C7E7CFFFE
FFFEFE38FE7FFE
FFFDFF81FF3FFE
FFFBFFFFFF9FFE
FFF7FFFFFFCFFE
FFEFFFFFFFE7FE
FFDFFFFFFFF3FE
FFBFFFFFFFF9FE
FF7FFFFFFFFCFE
FEFFFFFFFFFE7E
FDFFFFFFFFFF3E
FBFFFFFFFFFF9E
F7FFFFFFFFFFCE
6FFFFFFFFFFFE6
1FFFFFFFFFFFF0
1FFFFFFFFFFFF0
0FFFFFFFFFFFF0
ENDCHAR
STARTCHAR 0035
ENCODING 53
SWIDTH 983 0
DWIDTH 56 0
BBX 55 43 0 -5
BITMAP
00000038000000
0000007C0FF000
000001EF0FF000
000003C78FF000
00000781EFF000
00001E18FFF000
00003C7C3FF000
0000F0FF1FF000
0001E3FF87F000
000787FFC3F000
000F1FFFF0F000
003C3FFFF87800
0078FFFFFE1C00
01E1FFFFFF0F00
03C3FFFFFFC780
070FFFFFFFE1E0
1E1FFFFFFFF8F0
3C7FFFFFFFFC3C
F07FFFFFFFFE1E
607FFFFFFFFE06
007FFFFFFFFE00
007FFFFFFFFE00
007FFFFFFFFE00
007FFFFFFFFE00
007FFE007FFE00
007FFE007FFE00
007FFE007FFE00
007FFE007FFE00
007FFE007FFE00
007FFE007FFE00
007FFE007FFE00
007FFE007FFE00
007FFE007FFE00
007FFE007FFE00
007FFE007FFE00
007FFE007FFE00
007FFE007FFE00
007FFE007FFE00
007FFE007FFE00
007FFE007FFE00
007FFE007FFE00
007FFE007FFC00
003FFE007FF800
ENDCHAR
STARTCHAR 0036
ENCODING 54
SWIDTH 983 0
DWIDTH 56 0
BBX 54 58 1 -11
BITMAP
0070000001E000
00FC000007F000
01FE000007F800
03FE00000FF800
03FE00000FFC00
03FE00000FF800
03FE00000FF800
01FE000007F800
00FC000003F000
00700000008000
00000000000000
1FFFE0003FFE00
7FFFF0007FFF80
7FFFF800FFFF80
FFFFF800FFFFC0
FFFFFC01FFFFC0
FFFFFC01FFFFE0
FFFFFC01EFFDE0
F7FFBC03EFFDE0
F7FFBC03DFFDE0
F7FFBC03DFFDF0
F7FFBC07DFFEF0
F7FFBC07BFFEF0
F7FFBC07BFFEF8
F7FFBC07BFFF78
F7FFBC0FBFFF78
F7FFBC0F7FFF78
F7FFBC0F7FFF7C
F7FFBC1F7FFFBC
F7FFBC1EFFFFBC
F7FFBC0EFFFFBC
F7FFBC00FFFFC0
E7FFBC01FFFFC0
47FF9801FFFFC0
07DF8001FFFFC0
07DF8001FFFFE0
07DF8003FFFFE0
07DF8003FFFFE0
07DF8003FFFFF0
07DF80000F7C00
07DF80000F7C00
07DF80000F7C00
07DF80000F7C00
07DF80000F7C00
07DF80000F7C00
07DF80000F7C00
07DF80000F7C00
07DF80000F7C00
07DF80000F7C00
07DF80000F7C00
07DF80000F7C00
07DF80000F7C00
07DF80000F7C00
07DF80000F7C00
07DF80000F7C00
07DF80000F7C00
07CF00000F7C00
010600000E3800
ENDCHAR
STARTCHAR 0037
ENCODING 55
SWIDTH 983 0
DWIDTH 56 0
BBX 55 42 0 -3
BITMAP
0000FFE0000000
0007FFFC000000
001FFFFF000000
003FE0FF800000
00FF807FE00000
01FF803FF00000
03FF001FF80000
07FF001FFC0000
0FFE001FFC0000
0FFE000FFE0000
1FFF001FFF0000
1FFF001FFF0000
3FFF803FFF8000
3FFF807FFF8000
7FFFE0FFFF8000
7E07FFFC0FC000
7803FFF007C000
7801FFF003C000
7000FFE001C000
7000FFE001C000
F000FFE001C000
F000FFE001C000
7000FFE001C000
7801FFF003C000
7803FFF003C000
7E07FFFC0FC000
7F9FE0FF3FC000
3FFF807FFF8000
3FFF803FFF8000
3FFF001FFF8000
1FFF001FFF0000
1FFE001FFF0000
0FFE000FFE0000
07FF001FFC0000
03FF001FFE000C
03FF003FFE003E
01FF803FFF00FE
007FE0FFCFDFFC
003FFFFF87FFF0
000FFFFE03FFC0
0003FFF800FE00
00007FC0000000
ENDCHAR
STARTCHAR 0038
ENCODING 56
SWIDTH 983 0
DWIDTH 56 0
BBX 43 58 6 -11
BITMAP
3FFFFFFFFFC0
7FFFFFFFFFE0
7FFFFFFFFFE0
FFFFFFFFFFE0
FC00000003E0
F800000001E0
F800000001E0
F800000001E0
F800000001E0
F800000001E0
F800000001E0
F800000001E0
F800000001E0
F800000001E0
F800000001E0
FC00000003E0
FFFFFFFFFFE0
FFFFFFFFFFE0
FFFFFFFFFFE0
FFFFFFFFFFE0
F807C03E03E0
F807C03E01E0
F807C03E01E0
F807C03E01E0
F807C03E01E0
F807C03E01E0
F807C03E01E0
FFFFFFFFFFE0
FFFFFFFFFFE0
FFFFFFFFFFE0
FFFFFFFFFFE0
FFFFFFFFFFE0
FC0FE07F03E0
F807C03E01E0
F807C03E01E0
F807C03E01E0
F807C03E01E0
F807C03E01E0
F807C03E01E0
F807C07E03E0
FFFFFFFFFFE0
FFFFFFFFFFE0
FFFFFFFFFFE0
FFFFFFFFFFE0
FFFFFFFFFFE0
F807C03E03E0
F807C03E01E0
F807C03E01E0
F807C03E01E0
F807C03E01E0
F807C03E01E0
F807C03E01E0
FFFFFFFFFFE0
FFFFFFFFFFE0
FFFFFFFFFFE0
7FFFFFFFFFE0
7FFFFFFFFFE0
3FFFFFFFFFC0
ENDCHAR
STARTCHAR 0039
ENCODING 57
SWIDTH 983 0
DWIDTH 56 0
BBX 55 52 0 -7
BITMAP
70000000000000
FC000000000000
7E000000000000
3F000000000000
1F800000000000
0F800000000000
07C00000000000
03E0FFFFFFFFFE
03E0FFFFFFFFFE
01F0FFFFFFFFFC
00F07FFFFFFFFC
00F87FFFFFFFF8
00787FFFFFFFF8
00787FFFFFFFF0
007C7FFFFFFFF0
003C7FFFFFFFE0
003C3FFFFFFFE0
003C3FFFFFFFC0
001E3FFFFFFFC0
001E3FFFFFFF80
001E3FFFFFFF80
001E3FFFFFFF00
001F1FFFFFFF00
000F1FFFFFFE00
000F1FFFFFFE00
000F1FFFFFFE00
000F1FFFFFFC00
000F0000000000
000F8000000000
00078000000000
00078000000000
00078000000000
00078000000000
00078000000000
0007FFFFFFFFE0
0007FFFFFFFFE0
0007FFFFFFFFE0
0001FFFFFFFFC0
00000000000000
00000000000000
00000000000000
0003F000003F00
0007F800007F80
000FFC0000FFC0
000FFC0000FFC0
001FFE0000FFE0
001FFE0001FFE0
001FFE0000FFE0
000FFC0000FFE0
000FFC0000FFC0
0007F800007F80
0003F000003F00
ENDCHAR
STARTCHAR 003A
ENCODING 58
SWIDTH 983 0
DWIDTH 56 0
BBX 55 54 0 -9
BITMAP
000000003FF000
00000000FFFE00
00000003FFFF00
00000007FFFFC0
0000000FFFFFE0
0000001FFFFFF0
0000003FFFE7F0
0000007FFF81F8
0000007FFF00F8
000000FFFF00FC
000000FFFF00FC
000000FFFF00FE
000000FFFF00FE
000001FFFF81FE
000001FFFFC3FE
000001FFFFFFFE
000001FFFFFFFE
000001FFFFFFFE
000000FFFFFFFE
000000FFFFFFFE
000000FFFFFFFC
000000FFFFFFFC
0000047FFFFFF8
00000E7FFFFFF8
00001E3FFFFFF0
00003F1FFFFFE0
00007F0FFFFFE0
0000FF87FFFFC0
0001FFC3FFFF00
0003FFE0FFFE00
0007FFF83FF000
000FFFFC000000
001FFFFF000000
003FFFFF800000
007FFFE0000000
00FFFFE0000000
01FFFFE0000000
03FFFFE0000000
07FFFE00000000
0FFFFE00000000
1FFFFE00000000
3FFF0000000000
3FFF0000000000
7FFF0000000000
7FFF0000000000
FFFF0000000000
FFFF0000000000
FFFF0000000000
7FF00000000000
7FF00000000000
7FF00000000000
3FF00000000000
1FF00000000000
0FF00000000000
ENDCHAR
STARTCHAR 003B
ENCODING 59
SWIDTH 983 0
DWIDTH 56 0
BBX 55 55 0 -9
BITMAP
0000003C000000
0000003C000000
0000003C000000
0000003C000000
0000003C000000
0000003C000000
0000003C000000
0000003C000000
0000003C000000
0000003C000000
0000003C000000
0000003C000000
0000003C000000
0000003C000000
0000003C000000
0000003C000000
0000003C000000
0000003C000000
0000003C000000
0000003C000000
0000003C000000
0000003C000000
0000003C000000
0000003C000000
0000003C000000
0000003C000000
FFFFFFFFFFFFFE
FFFFFFFFFFFFFE
FFFFFFFFFFFFFE
FFFFFFFFFFFFFE
0000003C000000
0000003C000000
0000003C000000
0000003C000000
0000003C000000
0000003C000000
0000003C000000
0000003C000000
0000003C000000
0000003C000000
0000003C000000
0000003C000000
0000003C000000
0000003C000000
0000003C000000
0000003C000000
0000003C000000
0000003C000000
0000003C000000
0000003C000000
0000003C000000
0000003C000000
0000003C000000
0000003C000000
0000003C000000
ENDCHAR
STARTCHAR 003C
ENCODING 60
SWIDTH 983 0
DWIDTH 56 0
BBX 55 44 0 -4
BITMAP
00000038000000
0000003C000000
0000007E000000
0000007E000000
000000FF000000
000001FF000000
000001FF800000
000003FFC00000
000003EFC00000
000007E7E00000
00000FC7E00000
00000FC3F00000
00001F81F80000
00001F01F80000
00003F00FC0000
00007E00FC0000
00007E007E0000
0000FC003E0000
0000F8003F0000
0001F8001F8000
0003F0001F8000
0003F0000FC000
0007E00007C000
0007C00007E000
000FC00003F000
001F800003F000
001F800001F800
003F000000F800
003E000000FC00
007E0000007E00
00FC0000007E00
00FC0000003F00
01F80000001F00
01F00000001F80
03F00000000FC0
07E00000000FC0
07E000000007E0
0FC000000003E0
0F8000000003F0
1F8000000001F8
3F0000000001F8
3F0000000000FC
7E00000000007C
FC00000000007E
ENDCHAR
STARTCHAR 003D
ENCODING 61
SWIDTH 983 0
DWIDTH 56 0
BBX 55 55 0 -9
BITMAP
00000010000000
00000FFFE00000
00003FFFFC0000
0001FC003F0000
0007E00007C000
000F800001F000
003E0000007800
00780000003C00
00F00000000E00
01E00000000700
03C00000000380
0387FFFF0001C0
0703FFFFE000C0
0E00FC07F000E0
0E00FC03F80070
1C00FC01FC0030
1800FC00FC0038
3800FC00FE0038
3800FC007E0018
3000FC007E001C
7000FC007E000C
7000FC007E000C
6000FC00FC000E
6000FC00FC000E
6000FC01F80006
E000FC03F00006
E000FC0FE00006
E000FFFF800006
E000FFFE000006
E000FC7E000006
6000FC3F000006
6000FC1F80000E
6000FC1F80000E
6000FC0FC0000E
7000FC07E0000C
7000FC03F0000C
3000FC03F0001C
3800FC01F80018
1800FC00FC0038
1C00FC00FC0038
1C00FC007E0070
0E00FC003F0070
0601FE001F80E0
070FFFC01FE1C0
038000000001C0
01C00000000380
00E00000000700
00700000001E00
003C0000003C00
001E000000F800
000F800003E000
0003F0000FC000
0000FF00FF0000
00003FFFF80000
000007FFC00000
ENDCHAR
STARTCHAR 003E
ENCODING 62
SWIDTH 983 0
DWIDTH 56 0
BBX 55 55 0 -9
BITMAP
00000010000000
000007FFE00000
00003FFFFC0000
0001FC007F0000
0007E00007C000
000F800001F000
001E0000007800
00780000003C00
00F00000000E00
01E00000000700
03C0003F008380
038003FFF181C0
07000F807F80C0
0E003E001FC0E0
0E00780007C070
1C01F00003C030
1803E00003C038
3803E00001C018
3807C00000C018
300FC00000C01C
700F800000C00C
701F800000000C
601F800000000E
601F800000000E
603F8000000006
E03F8000000006
E03F0000000006
E03F0000000006
E03F8000000006
E03F8000000006
E03F8000000006
603F8000000006
601F800000000E
601F800000000E
701FC00000000C
700FC00000000C
300FC00000001C
3807E000006018
3803F00000C038
1C03F000018038
1C01FC00070070
0E007E000E0070
06003FC07C00E0
07000FFFF001C0
038003FF8003C0
01C00000000380
00E00000000700
00700000001E00
003C0000003C00
001E000000F800
000F800003E000
0003F0000FC000
0000FF00FF0000
00003FFFF80000
000007FFC00000
ENDCHAR
STARTCHAR 003F
ENCODING 63
SWIDTH 983 0
DWIDTH 56 0
BBX 55 54 0 -9
BITMAP
000007FFE00000
00003FFFFC0000
0001FFFFFF0000
0003FFFFFFC000
000FFFFFFFE000
001FFFFFFFF800
003FFC003FFC00
007FE0000FFE00
00FF800003FF00
01FF000000FF80
03FC0000007FC0
07F80000003FC0
07F00000001FE0
0FE00000000FF0
1FE000000007F0
1FC000000003F8
3F8000000003F8
3F8000000001FC
3F0000000001FC
7F0000000000FC
7E0000000000FC
7E0000000000FE
7E00000000007E
7E00000000007E
7E00000000007E
7E00000000007E
FE00000000007E
FE00000000007E
7E00000000007E
7E00000000007E
7E00000000007E
7E00000000007E
7E0000000000FE
7F0000000000FC
7F0000000000FC
3F0000000001FC
3F8000000001FC
1F8000000003F8
1FC000000003F8
1FE000000007F0
0FE00000000FF0
07F00000001FE0
07F80000003FC0
03FC0000007FC0
01FF000000FF80
00FF800003FF00
007FE0000FFE00
003FFC007FFC00
001FFFFFFFF800
000FFFFFFFE000
0003FFFFFFC000
0000FFFFFF0000
00003FFFFC0000
000007FFE00000
ENDCHAR
STARTCHAR 0040
ENCODING 64
SWIDTH 983 0
DWIDTH 56 0
BBX 55 55 0 -9
BITMAP
00000010000000
00000010000000
00000018000000
00000038000000
0000003C000000
0000007C000000
0000007E000000
000000FE000000
000000FF000000
000001FF000000
000001FF800000
000003FF800000
000003FFC00000
000007FFC00000
000007FFE00000
00000FFFE00000
00000FFFF00000
00001FFFF00000
00001FFFF80000
00003FFFF80000
00003FFFFC0000
00007FFFFC0000
00007FFFFE0000
0000FFFFFE0000
0000FFFFFF0000
0001FFFFFF0000
0001FFFFFF8000
0003FFFFFF8000
0003FFFFFFC000
0007FFFFFFC000
0007FFFFFFE000
000FFFFFFFE000
000FFFFFFFF000
001FFFFFFFF000
001FFFFFFFF800
003FFFFFFFF800
003FFFFFFFFC00
007FFFFFFFFC00
007FFFFFFFFE00
00FFFFFFFFFE00
00FFFFFFFFFF00
01FFFFFFFFFF00
01FFFFFFFFFF80
03FFFFFFFFFF80
03FFFFFFFFFFC0
07FFFFFFFFFFC0
07FFFFFFFFFFE0
0FFFFFFFFFFFE0
0FFFFFFFFFFFF0
1FFFFFFFFFFFF0
1FFFFFFFFFFFF8
3FFFFFFFFFFFF8
3FFFFFFFFFFFFC
7FFFFFFFFFFFFC
FFFFFFFFFFFFFE
ENDCHAR
STARTCHAR 0041
ENCODING 65
SWIDTH 983 0
DWIDTH 56 0
BBX 54 52 1 -8
BITMAP
80001000000000
C0001C00000000
F0001E00000000
F8001F00000000
FC001FC0000000
FF001FE0000000
FF801FF0000000
FFC01FFC000000
FFE01FFE000000
FFF81FFF000000
FFFC1FFFC00000
FFFE1FFFE00000
FFFF9FFFF00000
FFFFC7FFFC0000
FFFFE3FFFE0000
FFFFF9FFFF0000
FFFFFC7FFFC000
FFFFFE3FFFE000
FFFFFF9FFFF000
FFFFFFC7FFFC00
FFFFFFE3FFFE00
FFFFFFF9FFFF00
FFFFFFFC7FFFC0
FFFFFFFE3FFFE0
FFFFFFFF9FFFF0
FFFFFFFFC7FFFC
FFFFFFFFCFFFF8
FFFFFFFF1FFFF0
FFFFFFFE3FFFE0
FFFFFFFCFFFF80
FFFFFFF1FFFF00
FFFFFFE3FFFE00
FFFFFFCFFFF800
FFFFFF1FFFF000
FFFFFE3FFFE000
FFFFFCFFFF8000
FFFFF1FFFF0000
FFFFE3FFFE0000
FFFFCFFFF80000
FFFF1FFFF00000
FFFE1FFFE00000
FFFC1FFF800000
FFF01FFF000000
FFE01FFE000000
FFC01FF8000000
FF001FF0000000
FE001FE0000000
FC001F80000000
F0001F00000000
E0001E00000000
C0001800000000
80001000000000
ENDCHAR
STARTCHAR 0042
ENCODING 66
SWIDTH 983 0
DWIDTH 56 0
BBX 48 58 4 -11
BITMAP
800000001FFF
E00000001FFF
F80000001FFF
FC0000001FFF
FF0000001FFF
FF8000001FFF
FFE000001FFF
FFF800001FFF
FFFC00001FFF
FFFF00001FFF
FFFFC0001FFF
FFFFE0001FFF
FFFFF8001FFF
FFFFFE001FFF
FFFFFF001FFF
FFFFFFC01FFF
FFFFFFE01FFF
FFFFFFF81FFF
FFFFFFFE1FFF
FFFFFFFF1FFF
FFFFFFFFDFFF
FFFFFFFFFFFF
FFFFFFFFFFFF
FFFFFFFFFFFF
FFFFFFFFFFFF
FFFFFFFFFFFF
FFFFFFFFFFFF
FFFFFFFFFFFF
FFFFFFFFFFFF
FFFFFFFFFFFF
FFFFFFFFFFFF
FFFFFFFFFFFF
FFFFFFFFFFFF
FFFFFFFFFFFF
FFFFFFFFFFFF
FFFFFFFFFFFF
FFFFFFFFFFFF
FFFFFFFFDFFF
FFFFFFFF1FFF
FFFFFFFC1FFF
FFFFFFF81FFF
FFFFFFE01FFF
FFFFFF801FFF
FFFFFF001FFF
FFFFFC001FFF
FFFFF8001FFF
FFFFE0001FFF
FFFF80001FFF
FFFF00001FFF
FFFC00001FFF
FFF000001FFF
FFE000001FFF
FF8000001FFF
FE0000001FFF
FC0000001FFF
F00000001FFF
E00000001FFF
800000001FFF
ENDCHAR
STARTCHAR 0043
ENCODING 67
SWIDTH 983 0
DWIDTH 56 0
BBX 42 58 7 -11
BITMAP
FFFFC0FFFFC0
FFFFC0FFFFC0
FFFFC0FFFFC0
FFFFC0FFFFC0
FFFFC0FFFFC0
FFFFC0FFFFC0
FFFFC0FFFFC0
FFFFC0FFFFC0
FFFFC0FFFFC0
FFFFC0FFFFC0
FFFFC0FFFFC0
FFFFC0FFFFC0
FFFFC0FFFFC0
FFFFC0FFFFC0
FFFFC0FFFFC0
FFFFC0FFFFC0
FFFFC0FFFFC0
FFFFC0FFFFC0
FFFFC0FFFFC0
FFFFC0FFFFC0
FFFFC0FFFFC0
FFFFC0FFFFC0
FFFFC0FFFFC0
FFFFC0FFFFC0
FFFFC0FFFFC0
FFFFC0FFFFC0
FFFFC0FFFFC0
FFFFC0FFFFC0
FFFFC0FFFFC0
FFFFC0FFFFC0
FFFFC0FFFFC0
FFFFC0FFFFC0
FFFFC0FFFFC0
FFFFC0FFFFC0
FFFFC0FFFFC0
FFFFC0FFFFC0
FFFFC0FFFFC0
FFFFC0FFFFC0
FFFFC0FFFFC0
FFFFC0FFFFC0
FFFFC0FFFFC0
FFFFC0FFFFC0
FFFFC0FFFFC0
FFFFC0FFFFC0
FFFFC0FFFFC0
FFFFC0FFFFC0
FFFFC0FFFFC0
FFFFC0FFFFC0
FFFFC0FFFFC0
FFFFC0FFFFC0
FFFFC0FFFFC0
FFFFC0FFFFC0
FFFFC0FFFFC0
FFFFC0FFFFC0
FFFFC0FFFFC0
FFFFC0FFFFC0
FFFFC0FFFFC0
FFFFC0FFFFC0
ENDCHAR
STARTCHAR 0044
ENCODING 68
SWIDTH 983 0
DWIDTH 56 0
BBX 48 58 4 -11
BITMAP
800000000000
E00000000000
F00000000000
FC0000000000
FF0000000000
FF8000000000
FFE000000000
FFF000000000
FFFC00000000
FFFF00000000
FFFF80000000
FFFFE0000000
FFFFF8000000
FFFFFC000000
FFFFFF000000
FFFFFFC00000
FFFFFFE00000
FFFFFFF80000
FFFFFFFE0000
FFFFFFFF0000
FFFFFFFFC000
FFFFFFFFE000
FFFFFFFFF800
FFFFFFFFFE00
FFFFFFFFFF00
FFFFFFFFFFC0
FFFFFFFFFFF0
FFFFFFFFFFF8
FFFFFFFFFFFF
FFFFFFFFFFFE
FFFFFFFFFFF8
FFFFFFFFFFF0
FFFFFFFFFFC0
FFFFFFFFFF00
FFFFFFFFFE00
FFFFFFFFF800
FFFFFFFFE000
FFFFFFFFC000
FFFFFFFF0000
FFFFFFFC0000
FFFFFFF80000
FFFFFFE00000
FFFFFF800000
FFFFFF000000
FFFFFC000000
FFFFF8000000
FFFFE0000000
FFFF80000000
FFFF00000000
FFFC00000000
FFF000000000
FFE000000000
FF8000000000
FE0000000000
FC0000000000
F00000000000
E00000000000
800000000000
ENDCHAR
STARTCHAR 0045
ENCODING 69
SWIDTH 983 0
DWIDTH 56 0
BBX 54 54 1 -9
BITMAP
00000FFFC00000
00007FFFF80000
0003FFFFFE0000
0007FFFFFF8000
001FFFFFFFC000
003FFFFFFFF000
007FFFFFFFF800
00FFFFFFFFFC00
01FFFFFFFFFE00
03FFFFFFFFFF00
07FFFFFFFFFF80
0FFFFFFFFFFF80
0FFFFFFFFFFFC0
1FFFFFFFFFFFE0
3FFFFFFFFFFFE0
3FFFFE01FFFFF0
3FFFF8007FFFF0
7FFFE0003FFFF0
7FFFC0000FFFF8
7FFF80000FFFF8
FFFF800007FFF8
FFFF000003FFFC
FFFF000003FFFC
FFFE000003FFFC
FFFE000001FFFC
FFFE000001FFFC
FFFE000001FFFC
FFFE000001FFFC
FFFE000001FFFC
FFFE000001FFFC
FFFE000003FFFC
FFFF000003FFFC
FFFF000003FFFC
FFFF800007FFF8
7FFF80000FFFF8
7FFFC0001FFFF8
7FFFF0003FFFF0
3FFFF8007FFFF0
3FFFFE03FFFFF0
1FFFFFFFFFFFE0
1FFFFFFFFFFFE0
0FFFFFFFFFFFC0
0FFFFFFFFFFF80
07FFFFFFFFFF80
03FFFFFFFFFF00
01FFFFFFFFFE00
00FFFFFFFFFC00
007FFFFFFFF800
003FFFFFFFF000
000FFFFFFFC000
0007FFFFFF8000
0001FFFFFE0000
00007FFFF00000
000007FF800000
ENDCHAR
STARTCHAR 0046
ENCODING 70
SWIDTH 983 0
DWIDTH 56 0
BBX 54 54 1 -9
BITMAP
FFFFFFFFFFFFFC
FFFFFFFFFFFFFC
FFFFFFFFFFFFFC
FFFFFFFFFFFFFC
FFFFFFFFFFFFFC
FFFFFFFFFFFFFC
FFFFFFFFFFFFFC
FFFFFFFFFFFFFC
FFFFFFFFFFFFFC
FFFFFFFFFFFFFC
FFFFFFFFFFFFFC
FFFFFFFFFFFFFC
FFFFFFFFFFFFFC
FFFFFFFFFFFFFC
FFFFFFFFFFFFFC
FFFFFFFFFFFFFC
FFFFFFFFFFFFFC
FFFFFFFFFFFFFC
FFFFFFFFFFFFFC
FFFFFFFFFFFFFC
FFFFFFFFFFFFFC
FFFFFFFFFFFFFC
FFFFFFFFFFFFFC
FFFFFFFFFFFFFC
FFFFFFFFFFFFFC
FFFFFFFFFFFFFC
FFFFFFFFFFFFFC
FFFFFFFFFFFFFC
FFFFFFFFFFFFFC
FFFFFFFFFFFFFC
FFFFFFFFFFFFFC
FFFFFFFFFFFFFC
FFFFFFFFFFFFFC
FFFFFFFFFFFFFC
FFFFFFFFFFFFFC
FFFFFFFFFFFFFC
FFFFFFFFFFFFFC
FFFFFFFFFFFFFC
FFFFFFFFFFFFFC
FFFFFFFFFFFFFC
FFFFFFFFFFFFFC
FFFFFFFFFFFFFC
FFFFFFFFFFFFFC
FFFFFFFFFFFFFC
FFFFFFFFFFFFFC
FFFFFFFFFFFFFC
FFFFFFFFFFFFFC
FFFFFFFFFFFFFC
FFFFFFFFFFFFFC
FFFFFFFFFFFFFC
FFFFFFFFFFFFFC
FFFFFFFFFFFFFC
FFFFFFFFFFFFFC
FFFFFFFFFFFFFC
ENDCHAR
STARTCHAR 0047
ENCODING 71
SWIDTH 983 0
DWIDTH 56 0
BBX 48 58 4 -11
BITMAP
FFF000000001
FFF000000007
FFF00000001F
FFF00000003F
FFF0000000FF
FFF0000003FF
FFF0000007FF
FFF000001FFF
FFF000007FFF
FFF00000FFFF
FFF00003FFFF
FFF0000FFFFF
FFF0001FFFFF
FFF0007FFFFF
FFF000FFFFFF
FFF003FFFFFF
FFF00FFFFFFF
FFF01FFFFFFF
FFF07FFFFFFF
FFF1FFFFFFFF
FFF3FFFFFFFF
FFFFFFFFFFFF
FFFFFFFFFFFF
FFFFFFFFFFFF
FFFFFFFFFFFF
FFFFFFFFFFFF
FFFFFFFFFFFF
FFFFFFFFFFFF
FFFFFFFFFFFF
FFFFFFFFFFFF
FFFFFFFFFFFF
FFFFFFFFFFFF
FFFFFFFFFFFF
FFFFFFFFFFFF
FFFFFFFFFFFF
FFFFFFFFFFFF
FFFFFFFFFFFF
FFF3FFFFFFFF
FFF0FFFFFFFF
FFF07FFFFFFF
FFF01FFFFFFF
FFF00FFFFFFF
FFF003FFFFFF
FFF000FFFFFF
FFF0007FFFFF
FFF0001FFFFF
FFF00007FFFF
FFF00003FFFF
FFF00000FFFF
FFF000003FFF
FFF000001FFF
FFF0000007FF
FFF0000003FF
FFF0000000FF
FFF00000003F
FFF00000001F
FFF000000007
FFF000000001
ENDCHAR
STARTCHAR 0048
ENCODING 72
SWIDTH 983 0
DWIDTH 56 0
BBX 55 52 0 -8
BITMAP
00000000200002
0000000060000E
00000000E0001E
00000003E0003E
00000007E000FE
0000000FE001FE
0000003FE003FE
0000007FE00FFE
000000FFE01FFE
000003FFE03FFE
000007FFE07FFE
00000FFFE1FFFE
00003FFFE3FFFE
00007FFFC7FFFE
0000FFFF9FFFFE
0003FFFE3FFFFE
0007FFFC7FFFFE
000FFFF9FFFFFE
003FFFE3FFFFFE
007FFFC7FFFFFE
00FFFF9FFFFFFE
03FFFE3FFFFFFE
07FFFC7FFFFFFE
0FFFF9FFFFFFFE
3FFFE3FFFFFFFE
FFFFCFFFFFFFFE
7FFFC7FFFFFFFE
1FFFF3FFFFFFFE
0FFFF8FFFFFFFE
07FFFC7FFFFFFE
01FFFF3FFFFFFE
00FFFF8FFFFFFE
007FFFC7FFFFFE
001FFFF3FFFFFE
000FFFF8FFFFFE
0007FFFC7FFFFE
0001FFFF3FFFFE
0000FFFF8FFFFE
00007FFFC7FFFE
00001FFFE3FFFE
00000FFFE0FFFE
000007FFE07FFE
000001FFE03FFE
000000FFE00FFE
0000007FE007FE
0000001FE003FE
0000000FE000FE
00000007E0007E
00000001E0003E
00000000E0001E
00000000600006
00000000100002
ENDCHAR
STARTCHAR 0049
ENCODING 73
SWIDTH 983 0
DWIDTH 56 0
BBX 54 54 1 -9
BITMAP
F8200000000000
F8380000000000
F83C0000000000
F83F0000000000
F83F8000000000
F83F8000000000
F83F8000000000
F83F8200000000
F83F8300000000
F83F83C0000000
F83F83E0000000
F83F83F8000000
F83F83FE000000
F83F83FF000000
F83F83FFC00000
F83F83FFF00000
F83F83FFF80000
F83F83FFFE0000
F83F83FFFF0000
F83F83FFFFC000
F83F83FFFFF000
F83F83FFFFF800
F83F83FFFFFE00
F83F83FFFFFF80
F83F83FFFFFFC0
F83F83FFFFFFF0
F83F83FFFFFFFC
F83F83FFFFFFF8
F83F83FFFFFFF0
F83F83FFFFFFC0
F83F83FFFFFF00
F83F83FFFFFE00
F83F83FFFFF800
F83F83FFFFE000
F83F83FFFFC000
F83F83FFFF0000
F83F83FFFC0000
F83F83FFF80000
F83F83FFE00000
F83F83FFC00000
F83F83FF000000
F83F83FC000000
F83F83F8000000
F83F83E0000000
F83F8380000000
F83F8300000000
F83F8400000000
F83F8000000000
F83F8000000000
F83F8000000000
F83E0000000000
F83C0000000000
F8300000000000
F8200000000000
ENDCHAR
STARTCHAR 004A
ENCODING 74
SWIDTH 983 0
DWIDTH 56 0
BBX 55 54 0 -9
BITMAP
00000010000000
00000018000000
0000003C000000
0000007C000000
000000FE000000
000000FF000000
000001FF800000
000003FF800000
000007FFC00000
000007FFE00000
00000FFFF00000
00001FFFF00000
00003FFFF80000
00003FFFFC0000
00007FFFFE0000
0000FFFFFE0000
0001FFFFFF0000
0001FFFFFF8000
0003FFFFFFC000
0007FFFFFFE000
000FFFFFFFE000
000FFFFFFFF000
001FFFFFFFF800
003FFFFFFFFC00
007FFFFFFFFC00
007FFFFFFFFE00
00FFFFFFFFFF00
01FFFFFFFFFF80
03FFFFFFFFFF80
03FFFFFFFFFFC0
07FFFFFFFFFFE0
0FFFFFFFFFFFF0
1FFFFFFFFFFFF0
1FFFFFFFFFFFF8
3FFFFFFFFFFFFC
7FFFFFFFFFFFFE
00000000000000
00000000000000
00000000000000
00000000000000
FFFFFFFFFFFFFE
FFFFFFFFFFFFFE
FFFFFFFFFFFFFE
FFFFFFFFFFFFFE
FFFFFFFFFFFFFE
FFFFFFFFFFFFFE
FFFFFFFFFFFFFE
FFFFFFFFFFFFFE
FFFFFFFFFFFFFE
FFFFFFFFFFFFFE
FFFFFFFFFFFFFE
FFFFFFFFFFFFFE
FFFFFFFFFFFFFE
FFFFFFFFFFFFFE
ENDCHAR
STARTCHAR 004B
ENCODING 75
SWIDTH 983 0
DWIDTH 56 0
BBX 54 56 1 -10
BITMAP
00000000000600
00000000001F00
00000000003F00
00000000007F00
00000000007F00
0000000000FF00
0000000001FF00
0000000001FE00
0000000003FE00
0000000003FC00
0000000007F800
0000000007F800
000000000FF000
000000001FF000
000000001FE000
000000003FE000
000000003FC000
0FFFFFFFFF8000
1FFFFFFFFF8000
3FFFFFFFFF0000
3FFFFFFFFF0000
7FFFFFFFFF8000
FFFFFFFFFF8000
FFFFFFFFFFC000
1FFFFFFFFFC000
00FFFFFFFFE000
0007FFFFFFE000
00001FFFFFF000
000000FFFFF800
0000003FFFF800
0000007FFFFC00
0000007FFFFC00
000000FF7FFE00
000001FF3FFE00
000001FE1FFF00
000003FC0FFF80
000003FC0FFF80
000007F807FFC0
000007F003FFC0
00000FF001FFE0
00000FE000FFE0
00007FC0007FF0
000FFFC0003FF0
001FFF80003FF8
003FFF80001FFC
003FFF80000FFC
007FFFC00007F8
0003FFC00003F8
00001FC00001F0
00000FE00000F0
000007E0000060
000007E0000040
000003E0000000
000001C0000000
00000080000000
00000080000000
ENDCHAR
STARTCHAR 004C
ENCODING 76
SWIDTH 983 0
DWIDTH 56 0
BBX 47 58 4 -11
BITMAP
000000000400
000000000400
000000000E00
000000000E00
000000000F00
000000001F00
0001FFF01F00
000FFFFFFF80
003FFFFFFF80
007FFFFFFFC0
00FFFFFFFFC0
01FFFFFFFFE0
03FFFFFFFFE0
07FF9FFFFFE0
0FE000FFFFF0
1F00003FFFF0
3C00000FFFF8
2000000FFFF8
4000001FFFF8
0000003FFFFC
0000003FFFFC
0000007FFFFE
0000007FFFFE
000000FFFFE0
000001FFE000
000003E00000
000000000000
000000000000
000000000000
000000000000
000000000000
000000000000
00001F800000
000FFF000000
0FFFFF000000
FFFFFE000000
7FFFFC000000
7FFFFC000000
3FFFF8000000
3FFFF0000002
1FFFF000000C
1FFFF0000038
1FFFFC0001F0
0FFFFF000FF0
0FFFFFFFFFE0
07FFFFFFFFC0
07FFFFFFFF80
03FFFFFFFF00
03FFFFFFFE00
03FFFFFFF800
01FBFFFFE000
01F80FFF0000
00F000000000
00F000000000
00E000000000
006000000000
006000000000
004000000000
ENDCHAR
STARTCHAR 004D
ENCODING 77
SWIDTH 983 0
DWIDTH 56 0
BBX 55 47 0 -5
BITMAP
00000100000000
00007FFE000000
0003FFFF800000
000FFFFFE00000
001FFFFFF80000
007FFFFFFC0000
00FFFFFFFE0000
01FFFEFFFF0000
03FFC003FF8000
07FF0000FFC000
07FC00007FE000
0FF800001FF000
1FF000000FF000
1FE000000FF800
3FC0000007F800
3FC0000003FC00
3F80000003FC00
7F80000001FC00
7F00000001FC00
7F000001FFFFFE
7F000000FFFFFC
7F0000007FFFF8
FE0000003FFFF0
FE0000001FFFF0
FE0000000FFFE0
FE0000000FFFC0
7F00000007FF80
7F00000003FF00
7F00000001FE00
7F00000000FE00
7F800000007C00
3F800000003800
3FC00000003000
1FE00000000000
1FE00000000000
0FF00000000000
0FF80000000000
07FE0000400000
03FF8001C00000
03FFE00FE00000
01FFFFFFE00000
007FFFFFF00000
003FFFFFF00000
001FFFFFF80000
0007FFFFE00000
0001FFFF000000
00003FF8000000
ENDCHAR
STARTCHAR 004E
ENCODING 78
SWIDTH 983 0
DWIDTH 56 0
BBX 55 39 0 -1
BITMAP
000000000001C0
000000000007F0
00000000000FF8
00000000001FFC
00000000003FFC
00000000007FFE
0000000000FFFE
0000000001FFFE
0000000003FFFC
0000000007FFF8
000000000FFFF0
020000001FFFE0
0FC000003FFFC0
1FE000007FFF80
3FF00000FFFF00
7FF80001FFFE00
7FFC0003FFFC00
FFFE0007FFF800
7FFF000FFFF000
7FFF801FFFE000
3FFFC03FFFC000
1FFFE07FFF8000
0FFFF0FFFF0000
07FFF9FFFE0000
03FFFFFFFC0000
01FFFFFFF80000
00FFFFFFF00000
007FFFFFE00000
003FFFFFC00000
001FFFFF800000
000FFFFF000000
0007FFFE000000
0003FFFC000000
0001FFF8000000
0000FFF0000000
00007FE0000000
00003FC0000000
00001F80000000
00000F00000000
ENDCHAR
STARTCHAR 004F
ENCODING 79
SWIDTH 983 0
DWIDTH 56 0
BBX 54 54 1 -9
BITMAP
3FFC0000000000
7FFFC000000000
FFFFF800000000
FFFFFF00000000
FFFFFFC0000000
FFFFFFF0000000
FFFFFFFC000000
FFFFFFFE000000
7FFFFFFF800000
1FFFFFFFC00000
000FFFFFF00000
0000FFFFF80000
00001FFFFC0000
000007FFFE0000
000001FFFF0000
0000007FFF8000
3FF0001FFFC000
7FFF000FFFE000
FFFFC007FFF000
FFFFF003FFF000
FFFFFC00FFF800
FFFFFF007FFC00
FFFFFF803FFC00
FFFFFFC03FFE00
7FFFFFE01FFF00
1FFFFFF00FFF00
003FFFF807FF80
0007FFFC07FF80
0001FFFE03FFC0
00007FFF01FFC0
00001FFF01FFC0
00000FFF80FFE0
000007FFC0FFE0
000003FFC07FF0
000001FFE07FF0
000000FFE07FF0
07F000FFF03FF0
1FFC007FF03FF8
3FFE007FF03FF8
7FFF003FF81FF8
7FFF803FF81FF8
FFFF801FF81FFC
FFFFC01FF81FFC
FFFFC01FFC1FFC
FFFFC01FFC0FFC
FFFFC00FFC0FFC
FFFFC00FFC0FFC
FFFFC00FFC0FFC
FFFF800FFC0FFC
7FFF800FFC0FFC
7FFF000FFC0FFC
3FFE000FF80FF8
1FFC0007F807F8
07F00003F003F0
ENDCHAR
STARTCHAR 0050
ENCODING 80
SWIDTH 983 0
DWIDTH 56 0
BBX 52 58 2 -11
BITMAP
000007FE000000
00003FFFC00000
0000FFFFF00000
0003FFFFFC0000
0007FFFFFE0000
001FFFFFFF0000
003FFFFFFF8000
003FFFFFFFC000
007FFF1FFFE000
00FFF801FFE000
01FFE0007FF000
01FFC0003FF800
03FF00001FF800
03FF00000FF800
03FE000007FC00
07FC000007FC00
07FC000003FC00
07FC000003FE00
07F8000003FE00
07F8000003FE00
07F8000003FE00
07F8000003FE00
07F8000003FE00
07F8000003FE00
07F8000003FE00
07F8000003FE00
FFFFFFFFFFFFF0
FFFFFFFFFFFFF0
FFFFFFFFFFFFF0
FFFFFFFFFFFFF0
FFFFFFFFFFFFF0
FFFFFFFFFFFFF0
FFFFFFFFFFFFF0
FFFFFF1FFFFFF0
FFFFFE07FFFFF0
FFFFFC07FFFFF0
FFFFFC03FFFFF0
FFFFFC03FFFFF0
FFFFFC07FFFFF0
FFFFFE07FFFFF0
FFFFFF0FFFFFF0
FFFFFF0FFFFFF0
FFFFFF0FFFFFF0
FFFFFE0FFFFFF0
FFFFFE0FFFFFF0
FFFFFE0FFFFFF0
FFFFFE0FFFFFF0
FFFFFE0FFFFFF0
FFFFFE0FFFFFF0
FFFFFE07FFFFF0
FFFFFFFFFFFFF0
FFFFFFFFFFFFF0
FFFFFFFFFFFFF0
FFFFFFFFFFFFF0
FFFFFFFFFFFFF0
FFFFFFFFFFFFF0
FFFFFFFFFFFFF0
FFFFFFFFFFFFF0
ENDCHAR
STARTCHAR 0051
ENCODING 81
SWIDTH 983 0
DWIDTH 56 0
BBX 55 54 0 -9
BITMAP
001FFFFFFFF000
001FFFFFFFF000
001FFFFFFFF000
001FFFFFFFF000
001FFFFFFFF000
001FFFFFFFF000
001FFFFFFFF000
001FFFFFFFF000
001FFFFFFFF000
001FFFFFFFF000
001FFFFFFFF000
001FFFFFFFF000
001FFFFFFFF000
001FFFFFFFF000
001FFFFFFFF000
001FFFFFFFF000
001FFFFFFFF000
001FFFFFFFF000
001FFFFFFFF000
001FFFFFFFF000
0000001C000000
0000001C000000
0000001C000000
0000001C000000
0000001C000000
0000001C000000
0000001C000000
0000001C000000
001FFFFFFFF800
001FFFFFFFF800
00180000001800
00180000001800
00180000001800
00180000001800
00180000001800
FFFFFF00FFFFFE
FFFFFF00FFFFFE
FFFFFF00FFFFFE
FFFFFF00FFFFFE
FFFFFF00FFFFFE
FFFFFF00FFFFFE
FFFFFF00FFFFFE
FFFFFF00FFFFFE
FFFFFF00FFFFFE
FFFFFF00FFFFFE
FFFFFF00FFFFFE
FFFFFF00FFFFFE
FFFFFF00FFFFFE
FFFFFF00FFFFFE
FFFFFF00FFFFFE
FFFFFF00FFFFFE
FFFFFF00FFFFFE
FFFFFF00FFFFFE
FFFFFF00FFFFFE
ENDCHAR
STARTCHAR 0052
ENCODING 82
SWIDTH 983 0
DWIDTH 56 0
BBX 54 32 1 2
BITMAP
00000E00000000
00000F80000000
00000FC0000000
000007E0000000
000003F0000000
000FFFFC1FE000
00FFFFFE1FFC00
03FFFFFF1FFF00
0FFFFFFF9FFF80
1FFFFFFF9FFFC0
3FFFFFFF1FFFE0
3FFFFFFE1FFFF0
7FF007F8003FF8
7F8007F00007F8
FF0007E00003FC
FE000F800003FC
FE000F000001FC
FE000E000001FC
FC0000000001FC
FC0000000001FC
FE0000000001FC
FE0000000001FC
FF0000000003FC
FF0000000007F8
7FC00000000FF8
7FFFFFFFFFFFF0
3FFFFFFFFFFFF0
1FFFFFFFFFFFE0
0FFFFFFFFFFFC0
07FFFFFFFFFF80
03FFFFFFFFFE00
007FFFFFFFF800
ENDCHAR
STARTCHAR 0053
ENCODING 83
SWIDTH 983 0
DWIDTH 56 0
BBX 55 46 0 -5
BITMAP
000000000E0000
000000001F8000
000000003FC000
000000007FE000
00000000FFF000
00000001FFF800
00000003FFFC00
00000007FFFE00
7FFFFE0FFFFF00
FFFFFF1FFFFF80
FFFFFF3FFFFFC0
FFFFFE7FFFFFE0
FFFFFCFFFFFFF0
FFFFF9FFFFFFF8
FFFFF3FFFFFFFC
FFFFF7FFFFFFFC
FFFFE7FF3FDFFE
FFFFE7FC3FC3FE
FFC007F03FC1FC
FF8007C03FC03C
FF1FF81F3FDF82
FF3FFFFF3FDFFE
FF3FFFFF3FDFFE
FE7FFFFF3FDFFE
FE7FFFFF3FDFFC
FE7FFFFF3FDFFC
FC7FFFFF3FDFFC
FCFFFFFF3FDFFC
FCFFFFFF3FDFF8
FCFFFFFF3FDFF8
F9FFFFFF3FDFF8
F9FFFFFF3FDFF0
F9FFFFFF3FDFF0
F1FFFFFF3FDFF0
F3FFFFFF3FDFF0
F3FFFFFFBFDFE0
F3FFFFFF9F9FE0
E7FFFFFFC03FE0
E7FFFFFFFFFFC0
E7FFFFFFFFFFC0
E7FFFFFFFFFFC0
4FFFFFFFFFFFC0
0FFFFFFFFFFF80
0FFFFFFFFFFF80
0FFFFFFFFFFF00
07FFFFFFFFFE00
ENDCHAR
STARTCHAR 0054
ENCODING 84
SWIDTH 983 0
DWIDTH 56 0
BBX 55 54 0 -9
BITMAP
00000FFFE00000
00007FFFFC0000
0001FFFFFF0000
0007FFFFFFC000
000FFFFFFFE000
001FFFFFFFF800
007FFFFFFFFC00
00FFFFFFFFFE00
01FFFC007FFF00
01FFF0000FFF80
03FFC00003FFC0
07FF000001FFC0
0FFF800000FFE0
0FFFC000007FF0
1FFFE000003FF0
1FFFF000001FF8
3FF7F800000FF8
3FE3FC00000FF8
3FC1FE000007FC
7FC0FF000007FC
7FC07F800003FC
7F803FC00003FE
7F801FE00003FE
7F800FF00001FE
FF8007F80001FE
FF8003FC0001FE
FF8001FE0001FE
FF8000FF0001FE
FF80007F8001FE
FF80003FC001FE
7F80001FE001FE
7F80000FF003FE
7F800007F803FC
7FC00003FC03FC
7FC00001FE07FC
3FE00000FF07FC
3FE000007F8FF8
1FF000003FCFF8
1FF000001FFFF0
1FF800000FFFF0
0FFC000007FFE0
07FE000003FFE0
07FF800001FFC0
03FFC00007FF80
01FFF0001FFF80
00FFFE00FFFF00
007FFFFFFFFE00
003FFFFFFFFC00
001FFFFFFFF000
000FFFFFFFE000
0003FFFFFFC000
0000FFFFFF0000
00003FFFF80000
000007FFC00000
ENDCHAR
STARTCHAR 0055
ENCODING 85
SWIDTH 983 0
DWIDTH 56 0
BBX 55 49 0 -6
BITMAP
00000008000000
0000001C000000
0000003C000000
0000007C000000
000000FC000000
000001FC000000
000003FC000000
000007FC000000
000007FC000000
00000FFC000000
00001FFC000000
00003FFC000000
00007FFC000000
0000FFFC000000
0001FFFC000000
7FFFFFFC000000
FFFFFFFC000000
FFFFFFFC000000
FFFFFFFC000000
FFFFFFFC000000
FFFFFFFC000000
FFFFFFFC000000
FFFFFFFC1FFFFE
FFFFFFFC1FFFFE
FFFFFFFC1FFFFE
FFFFFFFC1FFFFE
FFFFFFFC1FFFFE
FFFFFFFC1FFFFE
FFFFFFFC000000
FFFFFFFC000000
FFFFFFFC000000
FFFFFFFC000000
FFFFFFFC000000
FFFFFFFC000000
0003FFFC000000
0001FFFC000000
0000FFFC000000
00007FFC000000
00003FFC000000
00001FFC000000
00000FFC000000
000007FC000000
000003FC000000
000001FC000000
000000FC000000
0000007C000000
0000003C000000
0000001C000000
0000001C000000
ENDCHAR
STARTCHAR 0056
ENCODING 86
SWIDTH 983 0
DWIDTH 56 0
BBX 54 50 1 -7
BITMAP
0000001C000000
0000003C000000
0000003C000000
0000007C000000
000000FC000000
000001FC000000
000003FC000000
000007FC000000
00000FFC000000
00001FFC000000
00003FFC000000
00007FFC000000
0000FFFC000000
0001FFFC000000
0003FFFC000000
FFFFFFFC007E00
FFFFFFFC007E00
FFFFFFFC007E00
FFFFFFFC007E00
FFFFFFFC007E00
FFFFFFFC007E00
FFFFFFFC007E00
FFFFFFFC3FFFFC
FFFFFFFC3FFFFC
FFFFFFFC3FFFFC
FFFFFFFC3FFFFC
FFFFFFFC3FFFFC
FFFFFFFC3FFFFC
FFFFFFFC007E00
FFFFFFFC007E00
FFFFFFFC007E00
FFFFFFFC007E00
FFFFFFFC007E00
FFFFFFFC007E00
FFFFFFFC007E00
0001FFFC000000
0001FFFC000000
0000FFFC000000
00007FFC000000
00003FFC000000
00001FFC000000
00000FFC000000
000007FC000000
000003FC000000
000001FC000000
000000FC000000
0000007C000000
0000003C000000
0000001C000000
0000000C000000
ENDCHAR
STARTCHAR 0057
ENCODING 87
SWIDTH 983 0
DWIDTH 56 0
BBX 55 54 0 -9
BITMAP
0000000000F800
00FFE00007FF00
03FFF8001FFFC0
07FFFC003FFFE0
0FFFFE00FFFFF0
1FFFFF01FFFFF8
3FFFFF83FFFFF8
3FFFFF83FFFFFC
7FFFFFC7FFFFFC
7FFFFFEFFFFFFE
7FFFFFEFFFFFFE
FFFFFFFFFFFFFE
FFFFFFFFFFFFFE
7FFFFFFFFFFFFE
7FFFFFFFFFFFFE
7FFFFFFFFFFFFE
7FFFFFFFFFFFFE
3FFFFFFFFFFFFE
3FFFFFFFFFFFFC
3FFFFFFFFFFFFC
1FFFFFFFFFFFF8
0FFFFFFFFFFFF8
0FFFFFFFFFFFF0
07FFFFFFFFFFE0
03FFFFFFFFFFC0
01FFFFFFFFFF80
00FFFFFFFFFF80
007FFFFFFFFF00
003FFFFFFFFE00
001FFFFFFFFC00
000FFFFFFFF800
0007FFFFFFF000
0003FFFFFFE000
0001FFFFFFC000
0000FFFFFF8000
00007FFFFF0000
00003FFFFE0000
00001FFFFC0000
00000FFFF80000
000007FFF00000
000003FFE00000
000001FFC00000
000001FFC00000
000000FF800000
0000007F000000
0000007E000000
0000003E000000
0000003C000000
0000001C000000
00000018000000
00000018000000
00000008000000
00000008000000
00000008000000
ENDCHAR
STARTCHAR 0058
ENCODING 88
SWIDTH 983 0
DWIDTH 56 0
BBX 46 58 5 -11
BITMAP
001E00000000
003F00000000
003F00000000
003F00000000
003F00000000
003F00000000
003F00000000
003F00000000
003F00000000
003F00000000
003F00000000
003F00000000
003F00000000
003F00000000
003F00000000
003F00000000
003F07800000
003F0FC00000
003F0FC00000
003F0FC1E000
003F0FC3F000
003F0FC3F070
003F0FC3F0F8
003F0FC3F1FC
783F0FC3F1FC
FC3F0FC7F1FC
FC3FFFFFFFFC
FC3FFFFFFFFC
FC3FFFFFFFFC
FC3FFFFFFFFC
FC3FFFFFFFFC
FC3FFFFFFFFC
FC3FFFFFFFFC
FC3FFFFFFFFC
FC3FFFFFFFFC
FC3FFFFFFFFC
FE7FFFFFFFFC
FFFFFFFFFFFC
FFFFFFFFFFFC
FFFFFFFFFFFC
FFFFFFFFFFFC
FFFFFFFFFFFC
7FFFFFFFFFFC
3FFFFFFFFFFC
3FFFFFFFFFFC
1FFFFFFFFFFC
0FFFFFFFFFFC
0FFFFFFFFFFC
07FFFFFFFFFC
03FFFFFFFFFC
03FFFFFFFFFC
01FFFFFFFFFC
00FFFFFFFFFC
00FFFFFFFFFC
007FFFFFFFF8
007FFFFFFFF8
003FFFFFFFF0
000FFFFFFFE0
ENDCHAR
STARTCHAR 0059
ENCODING 89
SWIDTH 983 0
DWIDTH 56 0
BBX 41 58 7 -11
BITMAP
00001E000000
00003F000000
00003F000000
00003F000000
00003F000000
003C3F0E0000
007E3F1F0000
007E3F1F0000
007E3F1F0000
007E3F1F0000
007E3F1F0000
007E3F1F0000
007E3F1F0F80
007E3F1F0F80
007E3F1F0F80
007E3F1F0F80
007E3F1F0F80
007E3F1F0F80
007E3F1F0F80
007E3F1F0F80
007E3F1F0F80
007E3F1F0F80
007E3F1F0F80
007E3F1F0F80
007E3F1F0F80
007E3F1F0F80
007E3F1F0F80
787E3F1F0F80
FC7E3F1F8F80
FC7FFFFFFF80
FC7FFFFFFF80
FC7FFFFFFF80
FC7FFFFFFF80
FC7FFFFFFF80
FC7FFFFFFF80
FC7FFFFFFF80
FC7FFFFFFF80
FC7FFFFFFF80
FC7FFFFFFF80
FFFFFFFFFF80
FFFFFFFFFF80
FFFFFFFFFF80
FFFFFFFFFF80
7FFFFFFFFF80
7FFFFFFFFF80
3FFFFFFFFF80
1FFFFFFFFF80
1FFFFFFFFF80
0FFFFFFFFF80
07FFFFFFFF80
07FFFFFFFF80
03FFFFFFFF80
01FFFFFFFF80
01FFFFFFFF80
00FFFFFFFF80
00FFFFFFFF80
007FFFFFFF00
001FFFFFFE00
ENDCHAR
STARTCHAR 005A
ENCODING 90
SWIDTH 983 0
DWIDTH 56 0
BBX 55 56 0 -10
BITMAP
00000000000700
00000000000700
00000003000780
000000078007C0
000000078007C0
0000000F8003E0
0000001F8003E0
0000003F8003E0
0000007F8001F0
000000FF83C1F0
000001FF83C1F0
000003FF83E0F8
000007FF83E0F8
00000FFF81E0F8
00001FFF81F0FC
00003FFF81F07C
00007FFF81F07C
0000FFFF81F07C
7FFFFFFF80F87E
FFFFFFFF80F87E
FFFFFFFF80F87E
FFFFFFFF80F87E
FFFFFFFF80F87E
FFFFFFFF80F83E
FFFFFFFF80F83E
FFFFFFFF80FC3E
FFFFFFFF80FC3E
FFFFFFFF80FC3E
FFFFFFFF80FC3E
FFFFFFFF80FC3E
FFFFFFFF80F83E
FFFFFFFF80F83E
FFFFFFFF80F87E
FFFFFFFF80F87E
FFFFFFFF80F87E
FFFFFFFF80F87E
FFFFFFFF80F87E
FFFFFFFF80F87C
FFFFFFFF81F07C
3FFFFFFF81F07C
00007FFF81F0FC
00003FFF81E0F8
00003FFF83E0F8
00001FFF83E0F8
00000FFF83C1F8
000007FF83C1F0
000003FF8381F0
000001FF8101E0
000000FF8003E0
0000007F8003E0
0000003F8007C0
0000001F8007C0
0000000F800780
00000007800F80
00000003800700
00000001000000
ENDCHAR
STARTCHAR 005B
ENCODING 91
SWIDTH 983 0
DWIDTH 56 0
BBX 54 54 1 -9
BITMAP
80000000000000
E0000000000000
F8000000000000
FE000000000000
FF800000000000
FFE00000000000
FFF80000000000
FFFE0000000000
FFFF8000000000
FFFFE000000000
FFFFF800000000
FFFFFE00000000
FFFFFF80000000
FFFFFFE0000000
FFFFFFF8000000
FFFFFFFE000000
FFFFFFFF800000
FFFFFFFFE00000
FFFFFFFFF80000
FFFFFFFFFE0000
FFFFFFFFFF8000
FFFFFFFFFFE000
FFFFFFFFFFF800
FFFFFFFFFFFE00
FFFFFFFFFFFF80
FFFFFFFFFFFFE0
FFFFFFFFFFFFFC
FFFFFFFFFFFFF8
FFFFFFFFFFFFE0
FFFFFFFFFFFF80
FFFFFFFFFFFE00
FFFFFFFFFFF800
FFFFFFFFFFE000
FFFFFFFFFF8000
FFFFFFFFFE0000
FFFFFFFFF80000
FFFFFFFFE00000
FFFFFFFF800000
FFFFFFFE000000
FFFFFFF8000000
FFFFFFE0000000
FFFFFF80000000
FFFFFC00000000
FFFFF000000000
FFFFC000000000
FFFF0000000000
FFFC0000000000
FFF00000000000
FFC00000000000
FF000000000000
FC000000000000
F0000000000000
C0000000000000
80000000000000
ENDCHAR
STARTCHAR 005C
ENCODING 92
SWIDTH 983 0
DWIDTH 56 0
BBX 55 55 0 -9
BITMAP
FFFFFFFFFFFFFE
7FFFFFFFFFFFFE
7FFFFFFFFFFFFC
3FFFFFFFFFFFFC
3FFFFFFFFFFFF8
1FFFFFFFFFFFF8
1FFFFFFFFFFFF0
0FFFFFFFFFFFF0
0FFFFFFFFFFFE0
07FFFFFFFFFFE0
07FFFFFFFFFFC0
03FFFFFFFFFFC0
03FFFFFFFFFF80
01FFFFFFFFFF80
01FFFFFFFFFF00
00FFFFFFFFFF00
00FFFFFFFFFE00
007FFFFFFFFE00
007FFFFFFFFC00
003FFFFFFFFC00
003FFFFFFFF800
001FFFFFFFF800
001FFFFFFFF000
000FFFFFFFF000
000FFFFFFFE000
0007FFFFFFE000
0007FFFFFFC000
0003FFFFFFC000
0003FFFFFF8000
0001FFFFFF8000
0001FFFFFF0000
0000FFFFFF0000
0000FFFFFE0000
00007FFFFE0000
00007FFFFC0000
00003FFFFC0000
00003FFFF80000
00001FFFF80000
00001FFFF00000
00000FFFF00000
00000FFFE00000
000007FFE00000
000007FFC00000
000003FFC00000
000003FF800000
000001FF800000
000001FF000000
000000FF000000
000000FE000000
0000007E000000
0000007C000000
0000003C000000
00000038000000
00000018000000
00000010000000
ENDCHAR
STARTCHAR 005D
ENCODING 93
SWIDTH 983 0
DWIDTH 56 0
BBX 54 54 1 -9
BITMAP
00000000000004
0000000000001C
0000000000007C
000000000001FC
000000000007FC
00000000001FFC
00000000007FFC
0000000001FFFC
0000000007FFFC
000000001FFFFC
000000007FFFFC
00000001FFFFFC
00000007FFFFFC
0000001FFFFFFC
0000007FFFFFFC
000001FFFFFFFC
000007FFFFFFFC
00001FFFFFFFFC
00007FFFFFFFFC
0001FFFFFFFFFC
0007FFFFFFFFFC
001FFFFFFFFFFC
007FFFFFFFFFFC
01FFFFFFFFFFFC
07FFFFFFFFFFFC
1FFFFFFFFFFFFC
7FFFFFFFFFFFFC
FFFFFFFFFFFFFC
1FFFFFFFFFFFFC
07FFFFFFFFFFFC
01FFFFFFFFFFFC
007FFFFFFFFFFC
001FFFFFFFFFFC
0007FFFFFFFFFC
0001FFFFFFFFFC
00007FFFFFFFFC
00001FFFFFFFFC
000007FFFFFFFC
000001FFFFFFFC
0000007FFFFFFC
0000001FFFFFFC
00000007FFFFFC
00000001FFFFFC
000000007FFFFC
000000001FFFFC
0000000007FFFC
0000000001FFFC
00000000007FFC
00000000001FFC
000000000007FC
000000000001FC
0000000000007C
0000000000001C
00000000000004
ENDCHAR
STARTCHAR 005E
ENCODING 94
SWIDTH 983 0
DWIDTH 56 0
BBX 54 20 1 8
BITMAP
00400000000800
00800000000400
01800000000600
03000000000300
07000000000380
0F0000000003C0
1E0000000001E0
3E0000000001F0
7FFFFFFFFFFFF8
FFFFFFFFFFFFFC
FFFFFFFFFFFFFC
7FFFFFFFFFFFF8
3E0000000001F0
1E0000000003E0
0F0000000003C0
07000000000380
03000000000700
01800000000600
00800000000400
00400000000800
ENDCHAR
STARTCHAR 005F
ENCODING 95
SWIDTH 983 0
DWIDTH 56 0
BBX 21 58 17 -11
BITMAP
003000
007800
00FC00
01FE00
03FF00
07FF80
0FFFC0
1FFFE0
38F8F0
40F818
80F800
00F800
00F800
00F800
00F800
00F800
00F800
00F800
00F800
00F800
00F800
00F800
00F800
00F800
00F800
00F800
00F800
00F800
00F800
00F800
00F800
00F800
00F800
00F800
00F800
00F800
00F800
00F800
00F800
00F800
00F800
00F800
00F800
00F800
00F800
00F800
00F800
80F800
60F818
3CF8E0
1FFFC0
0FFF80
07FF00
03FE00
01FC00
00F800
007000
002000
ENDCHAR
STARTCHAR 0060
ENCODING 96
SWIDTH 983 0
DWIDTH 56 0
BBX 20 58 18 -11
BITMAP
01F800
01F800
01F800
01F800
01F800
01F800
01F800
01F800
01F800
01F800
01F800
01F800
01F800
01F800
01F800
01F800
01F800
01F800
01F800
01F800
01F800
01F800
01F800
01F800
01F800
01F800
01F800
01F800
01F800
01F800
01F800
01F800
01F800
01F800
01F800
01F800
01F800
01F800
01F800
01F800
01F800
01F800
01F800
01F800
01F800
01F800
01F800
01F800
C1F830
79F9E0
3FFFC0
1FFF80
0FFF00
07FE00
03FC00
01F800
00F000
006000
ENDCHAR
STARTCHAR 0061
ENCODING 97
SWIDTH 983 0
DWIDTH 56 0
BBX 55 32 0 3
BITMAP
00000000000200
00000000000200
00000000000200
00000000000700
00003FFC000700
0000FFFF800F00
0003FFFFE01F80
000FFFFFF81F80
001FFFFFFE3F80
003FFFFFFFBF80
007FFFFFFFFFC0
00FFFFFFFFFFC0
01FFFFFFFFFFC0
01FFFFFFFFFFC0
03FFFFFFFFFFE0
07FFFFFFFFFFE0
07FC00FFFFFFE0
0FE0001FFFFFE0
0F800007FFFFF0
1F000001FFFFF0
3C000000FFFFF0
38000000FFFFF8
20000001FFFFF8
40000003FFFFF8
80000007FFFFF8
0000000FFFFFFC
0000001FFFFFFC
0000001FFFFFFC
0000003FFFFFFC
0000007FFFFFFE
000000FFFFFFFE
000001FFFFFFFE
ENDCHAR
STARTCHAR 0062
ENCODING 98
SWIDTH 983 0
DWIDTH 56 0
BBX 54 31 1 3
BITMAP
00800000000000
00800000000000
01C00000000000
01C0001FE00000
01E001FFFC0000
01E00FFFFF0000
03F03FFFFFC000
03F0FFFFFFE000
03F9FFFFFFF000
03FFFFFFFFF800
07FFFFFFFFFC00
07FFFFFFFFFE00
07FFFFFFFFFE00
0FFFFFFFFFFF00
0FFFFFFFFFFF80
0FFFFFFE01FF80
0FFFFFF0003FC0
1FFFFFC00007E0
1FFFFF000003E0
1FFFFE000000F0
1FFFFE00000070
3FFFFF00000018
3FFFFF80000008
3FFFFFC0000004
3FFFFFC0000000
7FFFFFE0000000
7FFFFFF0000000
7FFFFFF8000000
FFFFFFFC000000
FFFFFFFC000000
FFFFFFFF000000
ENDCHAR
STARTCHAR 0063
ENCODING 99
SWIDTH 983 0
DWIDTH 56 0
BBX 54 59 1 -11
BITMAP
000003FF000000
000007FF800000
000007FFC00000
000007FFC00000
000007FFC00000
000007FFC00000
000007FFC00000
000007FFC00000
000007FFC00000
000007FFC00000
000007FFC00000
000007FFC00000
000007FFC00000
000007FFC00000
000007FFC00000
000007FFC00000
000007FFC00000
000007FFC00000
000007FFC00000
000007FFC00000
000007FFC00000
000007FFC00000
000007FFC00000
000007FFC00000
000007FFC00000
000007FFC00000
000007FFC00000
7E0007FFC001F0
FF8007FFC00FF8
FFE007FFC03FFC
FFF807FFC0FFFC
FFFE07FFC3FFFC
FFFF87FFCFFFFC
FFFFE7FFFFFFFC
FFFFFFFFFFFFF8
7FFFFFFFFFFFF0
3FFFFFFFFFFFE0
1FFFFFFFFFFFC0
0FFFFFFFFFFF80
07FFFFFFFFFF00
03FFFFFFFFFE00
01FFFFFFFFFC00
00FFFFFFFFF800
007FFFFFFFF000
003FFFFFFFE000
001FFFFFFFC000
000FFFFFFF8000
0007FFFFFF0000
0003FFFFFE0000
0001FFFFFC0000
0000FFFFF80000
00007FFFF00000
00003FFFE00000
00001FFFC00000
00000FFF800000
000007FF000000
000003FE000000
000001FC000000
00000070000000
ENDCHAR
STARTCHAR 0064
ENCODING 100
SWIDTH 983 0
DWIDTH 56 0
BBX 54 55 1 -9
BITMAP
00000000000800
00000000003E00
00000000007F00
0000000000FF80
0000000001FFC0
0200000003FFE0
1F80000007FFF0
3F8000000FFFF8
7FC000001FFFFC
FFE000003FFFFC
FFE000007FFFFC
FFF00000FFFFF8
FFF00001FFFFF8
FFF00003FFFFF0
FFF80007FFFFE0
FFF8000FFFFFC0
FFF8001FFFFF80
FFFC003FFFFF00
FFFC007FFFFE00
FFFC00FFFFFC00
FFFE01FFFFF800
FFFE03FFFFF000
FFFE07FFFFE000
FFFF0FFFFFC000
FFFF1FFFFF8000
FFFF3FFFFF0000
FFFFFFFFFE0000
FFFFFFFFFC0000
FFFFFFFFF80000
FFFFFFFFF00000
FFFFFFFFE00000
FFFFFFFFC00000
FFFFFFFF800000
FFFFFFFF000000
FFFFFFFE000000
FFFFFFFC000000
FFFFFFF8000000
FFFFFFF0000000
FFFFFFF8000000
FFFFFFFF000000
FFFFFFFFE00000
FFFFFFFFFC0000
FFFFFFFFFF8000
FFFFFFFFFFF000
FFFFFFFFFFFC00
FFFFFFFFFFFE00
FFFFFFFFFFFF00
FFFFFFFFFFFF80
FFFFFFFFFFFF80
FFFFFFFFFFFF80
FFFFFFFFFFFF80
7FFFFFFFFFFF00
7FFFFFFFFFFE00
3FFFFFFFFFFC00
0FFFFFFFFFF800
ENDCHAR
STARTCHAR 0065
ENCODING 101
SWIDTH 983 0
DWIDTH 56 0
BBX 54 55 1 -9
BITMAP
00400000000000
03F00000000000
07F80000000000
0FFC0000000000
1FFE0000000000
3FFF0000000100
7FFF80000007E0
FFFFC000000FF0
FFFFE000001FF8
FFFFF000001FF8
FFFFF800003FFC
FFFFFC00003FFC
7FFFFE00003FFC
3FFFFF00007FFC
1FFFFF80007FFC
0FFFFFC000FFFC
07FFFFE000FFFC
03FFFFF000FFFC
01FFFFF801FFFC
00FFFFFC01FFFC
007FFFFE01FFFC
003FFFFF01FFFC
001FFFFF83FFFC
000FFFFFC3FFFC
0007FFFFE7FFFC
0003FFFFF7FFFC
0001FFFFFFFFFC
0000FFFFFFFFFC
00007FFFFFFFFC
00003FFFFFFFFC
00001FFFFFFFFC
00000FFFFFFFFC
000007FFFFFFFC
000003FFFFFFFC
000001FFFFFFFC
000000FFFFFFFC
0000007FFFFFFC
0000003FFFFFFC
000000FFFFFFFC
000007FFFFFFFC
00003FFFFFFFFC
0001FFFFFFFFFC
000FFFFFFFFFFC
003FFFFFFFFFFC
00FFFFFFFFFFFC
03FFFFFFFFFFFC
07FFFFFFFFFFFC
07FFFFFFFFFFFC
07FFFFFFFFFFFC
07FFFFFFFFFFFC
07FFFFFFFFFFF8
07FFFFFFFFFFF8
03FFFFFFFFFFF0
01FFFFFFFFFFE0
007FFFFFFFFFC0
ENDCHAR
STARTCHAR 0066
ENCODING 102
SWIDTH 983 0
DWIDTH 56 0
BBX 55 52 0 -7
BITMAP
00000060000000
000001F8000000
000007FC000000
00000FFC000000
00001FFC000000
00003FFC000000
00007FFC000000
0000FFFC000000
0001FFF8000000
0003FFF8000000
0007FFF0000000
0007FFF0000000
000FFFE0000000
001FFFE0000000
003FFFC0000000
007FFFC0000000
00FFFF80000000
01FFFF80000000
03FFFF00000000
07FFFF00000000
0FFFFFFFFFFFF8
1FFFFFFFFFFFFC
3FFFFFFFFFFFFE
7FFFFFFFFFFFFE
7FFFFFFFFFFFFE
FFFFFFFFFFFFFE
FFFFFFFFFFFFFE
7FFFFFFFFFFFFE
7FFFFFFFFFFFFE
3FFFFFFFFFFFFE
3FFFFFFFFFFFFE
1FFFFFFFFFFFFC
0FFFFFFFFFFFF8
07FFFF00000000
03FFFF80000000
01FFFF80000000
00FFFFC0000000
007FFFC0000000
003FFFE0000000
001FFFE0000000
000FFFF0000000
0007FFF0000000
0003FFF8000000
0001FFF8000000
0000FFF8000000
00007FFC000000
00003FFC000000
00001FFC000000
00000FFC000000
000007FC000000
000003F8000000
000000F0000000
ENDCHAR
STARTCHAR 0067
ENCODING 103
SWIDTH 983 0
DWIDTH 56 0
BBX 55 51 0 -8
BITMAP
00000004000000
0000001F800000
0000003FC00000
0000007FE00000
0000007FF00000
0000007FF80000
0000003FFC0000
0000003FFE0000
0000001FFF0000
0000001FFF8000
0000001FFFC000
0000000FFFE000
0000000FFFF000
00000007FFF800
00000007FFFC00
00000003FFFE00
00000003FFFF00
00000001FFFF80
00000001FFFFC0
00000000FFFFE0
1FFFFFFFFFFFF0
7FFFFFFFFFFFF8
7FFFFFFFFFFFFC
FFFFFFFFFFFFFE
FFFFFFFFFFFFFE
FFFFFFFFFFFFFE
FFFFFFFFFFFFFE
FFFFFFFFFFFFFE
FFFFFFFFFFFFFE
FFFFFFFFFFFFFC
7FFFFFFFFFFFF8
7FFFFFFFFFFFF0
0FFFFFFFFFFFE0
00000001FFFFC0
00000001FFFF80
00000003FFFF00
00000003FFFE00
00000007FFFC00
00000007FFF800
0000000FFFF000
0000000FFFE000
0000001FFFC000
0000001FFF8000
0000003FFF0000
0000003FFE0000
0000003FFC0000
0000007FF80000
0000007FF00000
0000007FE00000
0000003FC00000
0000001F800000
ENDCHAR
STARTCHAR 0068
ENCODING 104
SWIDTH 983 0
DWIDTH 56 0
BBX 54 58 1 -11
BITMAP
000000FC000000
000001FE000000
000003FF000000
000007FF800000
00000FFFC00000
00001FFFE00000
00003FFFF00000
00007FFFF80000
0000FFFFFC0000
0001FFFFFE0000
0003FFFFFF0000
0007FFFFFF8000
000FFFFFFFC000
001FFFFFFFE000
003FFFFFFFF000
007FFFFFFFF800
00FFFFFFFFFC00
01FFFFFFFFFE00
03FFFFFFFFFF00
07FFFFFFFFFF80
0FFFFFFFFFFFC0
1FFFFFFFFFFFE0
3FFFFFFFFFFFF0
7FFFFFFFFFFFF8
FFFFFFFFFFFFFC
FFFFC7FFDFFFFC
FFFF07FFC7FFFC
FFFC07FFC1FFFC
FFF007FFC07FFC
FFC007FFC01FF8
7F0007FFC007F8
380007FFC00060
000007FFC00000
000007FFC00000
000007FFC00000
000007FFC00000
000007FFC00000
000007FFC00000
000007FFC00000
000007FFC00000
000007FFC00000
000007FFC00000
000007FFC00000
000007FFC00000
000007FFC00000
000007FFC00000
000007FFC00000
000007FFC00000
000007FFC00000
000007FFC00000
000007FFC00000
000007FFC00000
000007FFC00000
000007FFC00000
000007FFC00000
000007FFC00000
000007FF800000
000003FF000000
ENDCHAR
STARTCHAR 0069
ENCODING 105
SWIDTH 983 0
DWIDTH 56 0
BBX 55 56 0 -10
BITMAP
07FFFFFFFFFC00
1FFFFFFFFFFF00
3FFFFFFFFFFF80
7FFFFFFFFFFFC0
7FFFFFFFFFFFC0
FFFFFFFFFFFFC0
FFFFFFFFFFFFC0
FFFFFFFFFFFFC0
FFFFFFFFFFFFC0
FFFFFFFFFFFF80
FFFFFFFFFFFF00
FFFFFFFFFFFC00
FFFFFFFFFFF000
FFFFFFFFFF8000
FFFFFFFFFC0000
FFFFFFFFE00000
FFFFFFFF000000
FFFFFFF8000000
FFFFFFF8000000
FFFFFFFC000000
FFFFFFFE000000
FFFFFFFF000000
FFFFFFFF800000
FFFFFFFFC00000
FFFFFFFFE00000
FFFFFFFFF00000
FFFFFFFFF80000
FFFFFFFFFC0000
FFFFFFFFFE0000
FFFFFFFFFF0000
FFFF9FFFFF8000
FFFF8FFFFFC000
FFFF07FFFFE000
FFFF03FFFFF000
FFFF01FFFFF800
FFFE00FFFFFC00
FFFE007FFFFE00
FFFE003FFFFF00
FFFE001FFFFF80
FFFC000FFFFFC0
FFFC0007FFFFE0
FFFC0003FFFFF0
FFF80001FFFFF8
FFF80000FFFFFC
FFF000007FFFFE
7FF000003FFFFE
7FE000001FFFFE
3FE000000FFFFE
1FC0000007FFFE
0F80000003FFFC
0000000001FFF8
0000000000FFF0
00000000007FE0
00000000003FC0
00000000001F80
00000000000600
ENDCHAR
STARTCHAR 006A
ENCODING 106
SWIDTH 983 0
DWIDTH 56 0
BBX 55 56 0 -10
BITMAP
003FFFFFFFFFE0
00FFFFFFFFFFF8
01FFFFFFFFFFFC
03FFFFFFFFFFFC
03FFFFFFFFFFFE
07FFFFFFFFFFFE
07FFFFFFFFFFFE
07FFFFFFFFFFFE
03FFFFFFFFFFFE
01FFFFFFFFFFFE
00FFFFFFFFFFFE
003FFFFFFFFFFE
000FFFFFFFFFFE
0001FFFFFFFFFE
00003FFFFFFFFE
000007FFFFFFFE
000000FFFFFFFE
0000003FFFFFFE
0000003FFFFFFE
0000007FFFFFFE
000000FFFFFFFE
000001FFFFFFFE
000003FFFFFFFE
000007FFFFFFFE
00000FFFFFFFFE
00001FFFFFFFFE
00003FFFFFFFFE
00007FFFFFFFFE
0000FFFFFFFFFE
0001FFFFFFFFFE
0003FFFFFBFFFE
0007FFFFF1FFFE
000FFFFFE1FFFE
001FFFFFC0FFFE
003FFFFF80FFFE
007FFFFF00FFFE
00FFFFFE007FFE
01FFFFFC007FFE
03FFFFF8007FFE
07FFFFF0007FFE
0FFFFFE0003FFE
1FFFFFC0003FFE
3FFFFF80001FFE
7FFFFF00001FFE
7FFFFE00001FFE
7FFFFC00000FFE
FFFFF800000FFC
7FFFF0000007FC
7FFFE0000003F8
3FFFC0000001E0
1FFF8000000000
0FFF0000000000
07FE0000000000
03FC0000000000
01F80000000000
00400000000000
ENDCHAR
STARTCHAR 006B
ENCODING 107
SWIDTH 983 0
DWIDTH 56 0
BBX 55 48 0 -6
BITMAP
00000001000000
00000001000000
00000001800000
00000001C00000
00000001E00000
00000001F00000
00000001F80000
00000001FC0000
00000001FE0000
00000001FF0000
00000001FF8000
00000001FFC000
00001FFFFFE000
0001FFFFFFF000
0007FFFFFFF800
001FFFFFFFFC00
007FFFFFFFFE00
00FFFFFFFFFF00
01FFFFFFFFFF80
03FFFFFFFFFFC0
07FFFFFFFFFFE0
07FFFFFFFFFFF0
0FFFFFFFFFFFF8
1FFFFFFFFFFFFC
1FFFFFFFFFFFFE
1FFFFFFFFFFFFC
3FFFF00FFFFFF0
3FFF000FFFFFC0
3FFC000FFFFF00
7FF0001FFFFE00
7FE0001FFFF800
7FC0001FFFE000
7F80001FFF8000
7F00001FFF0000
7E00001FFC0000
7E00003FF00000
FC00003FC00000
F800003F800000
F800003E000000
F0000038000000
F0000030000000
E0000040000000
60000000000000
40000000000000
40000000000000
40000000000000
40000000000000
40000000000000
ENDCHAR
STARTCHAR 006C
ENCODING 108
SWIDTH 1071 0
DWIDTH 61 0
BBX 61 52 0 -8
BITMAP
0000002000000000
0000006000000000
000000E000000000
000001E000000000
000003E000000000
000007E000000000
00000FE000000000
00001FE000000000
00003FE000000000
00007FE000000000
0000FFE000000000
0001FFE000000000
0003FFE700000000
0007FFFFFF800000
000FFFFFFFF80000
001FFFFFFFFE0000
003FFFFFFFFF8000
007FFFFFFFFFE000
00FFFFFFFFFFF000
01FFFFFFFFFFF800
03FFFFFFFFFFFC00
07FFFFFFFFFFFE00
0FFFFFFFFFFFFF00
1FFFFFFFFFFFFF00
3FFFFFFFFFFFFF80
7FFFFFFFFFFFFFC0
FFFFFFFFFFFFFFC0
3FFFFFFFFFFFFFC0
0FFFFFFF87FFFFE0
07FFFFFE003FFFE0
01FFFFFE0007FFE0
007FFFFE0001FFF0
001FFFFE0000FFF0
000FFFFE00003FF0
0003FFFE00001FF0
0000FFFF00000FF0
00003FFF00000FF8
00001FFF000007F8
000007FF000003F8
000001FF000001F8
000000FF000001F8
0000003F800000F8
0000000F800000F8
0000000380000078
0000000180000078
0000000040000038
0000000000000038
0000000000000018
0000000000000018
0000000000000018
0000000000000008
0000000000000008
ENDCHAR
STARTCHAR 006D
ENCODING 109
SWIDTH 983 0
DWIDTH 56 0
BBX 48 58 4 -11
BITMAP
0003FFFF8000
0003FFFF8000
0003FFFF8000
0003FFFF8000
0003FFFF8000
0003FFFF8000
0003FFFF8000
0003FFFF8000
0003FFFF8000
0003FFFF8000
0003FFFF8000
0003FFFF8000
0003FFFF8000
0003FFFF8000
0003FFFF8000
0003FFFF8000
0003FFFF8000
0003FFFF8000
0003FFFF8000
0003FFFF8000
0003FFFF8000
0003FFFF8000
0003FFFF8000
0003FFFF8000
0003FFFF8000
0003FFFF8000
0003FFFF8000
0003FFFF8000
0003FFFF8000
0003FFFF8000
0003FFFF8000
0003FFFF8000
FFFFFFFFFFFF
7FFFFFFFFFFE
3FFFFFFFFFFC
1FFFFFFFFFF8
0FFFFFFFFFF0
07FFFFFFFFE0
03FFFFFFFFC0
01FFFFFFFF80
01FFFFFFFF00
00FFFFFFFE00
007FFFFFFC00
003FFFFFF800
001FFFFFF800
000FFFFFF000
0007FFFFE000
0003FFFFC000
0001FFFF8000
0000FFFF0000
00007FFE0000
00003FFC0000
00001FF80000
00001FF00000
00000FE00000
000007C00000
000003800000
000001800000
ENDCHAR
STARTCHAR 006E
ENCODING 110
SWIDTH 983 0
DWIDTH 56 0
BBX 55 46 0 -5
BITMAP
00000080000000
00000180000000
00000380000000
00000780000000
00000F80000000
00001F80000000
00003F80000000
00007F80000000
0000FF80000000
0001FF80000000
0003FF80000000
0007FF80000000
000FFF80000000
003FFFFFFFFFFE
007FFFFFFFFFFE
00FFFFFFFFFFFE
01FFFFFFFFFFFE
03FFFFFFFFFFFE
07FFFFFFFFFFFE
0FFFFFFFFFFFFE
1FFFFFFFFFFFFE
3FFFFFFFFFFFFE
FFFFFFFFFFFFFE
7FFFFFFFFFFFFE
3FFFFFFFFFFFFE
1FFFFFFFFFFFFE
0FFFFFFFFFFFFE
07FFFFFFFFFFFE
01FFFFFFFFFFFE
00FFFFFFFFFFFE
007FFFFFFFFFFE
003FFFFFFFFFFE
001FFF80000000
000FFF80000000
0007FF80000000
0003FF80000000
0001FF80000000
0000FF80000000
00007F80000000
00003F80000000
00000F80000000
00000780000000
00000380000000
00000180000000
00000080000000
00000080000000
ENDCHAR
STARTCHAR 006F
ENCODING 111
SWIDTH 983 0
DWIDTH 56 0
BBX 55 46 0 -5
BITMAP
00000002000000
00000001000000
00000001800000
00000001C00000
00000001E00000
00000001F00000
00000001F80000
00000001FE0000
00000001FF0000
00000001FF8000
00000001FFC000
00000001FFE000
00000001FFF000
FFFFFFFFFFF800
FFFFFFFFFFFC00
FFFFFFFFFFFE00
FFFFFFFFFFFF00
FFFFFFFFFFFF80
FFFFFFFFFFFFC0
FFFFFFFFFFFFF0
FFFFFFFFFFFFF8
FFFFFFFFFFFFFC
FFFFFFFFFFFFFE
FFFFFFFFFFFFFC
FFFFFFFFFFFFF8
FFFFFFFFFFFFF0
FFFFFFFFFFFFE0
FFFFFFFFFFFFC0
FFFFFFFFFFFF80
FFFFFFFFFFFF00
FFFFFFFFFFFE00
FFFFFFFFFFFC00
00000001FFF800
00000001FFF000
00000001FFE000
00000001FF8000
00000001FF0000
00000001FE0000
00000001FC0000
00000001F80000
00000001F00000
00000001E00000
00000001C00000
00000001800000
00000001000000
00000002000000
ENDCHAR
STARTCHAR 0070
ENCODING 112
SWIDTH 983 0
DWIDTH 56 0
BBX 48 58 4 -11
BITMAP
000001800000
000003800000
000007C00000
00000FE00000
00000FF00000
00001FF80000
00003FFC0000
00007FFE0000
0000FFFF0000
0001FFFF8000
0003FFFFC000
0007FFFFE000
000FFFFFF000
001FFFFFF800
003FFFFFF800
007FFFFFFC00
00FFFFFFFE00
00FFFFFFFF00
01FFFFFFFF80
03FFFFFFFFC0
07FFFFFFFFE0
0FFFFFFFFFF0
1FFFFFFFFFF8
3FFFFFFFFFFC
7FFFFFFFFFFE
FFFFFFFFFFFF
0003FFFF8000
0003FFFF8000
0003FFFF8000
0003FFFF8000
0003FFFF8000
0003FFFF8000
0003FFFF8000
0003FFFF8000
0003FFFF8000
0003FFFF8000
0003FFFF8000
0003FFFF8000
0003FFFF8000
0003FFFF8000
0003FFFF8000
0003FFFF8000
0003FFFF8000
0003FFFF8000
0003FFFF8000
0003FFFF8000
0003FFFF8000
0003FFFF8000
0003FFFF8000
0003FFFF8000
0003FFFF8000
0003FFFF8000
0003FFFF8000
0003FFFF8000
0003FFFF8000
0003FFFF8000
0003FFFF8000
0003FFFF8000
ENDCHAR
STARTCHAR 0071
ENCODING 113
SWIDTH 983 0
DWIDTH 56 0
BBX 50 58 3 -11
BITMAP
00000000200000
00000000600000
00000000700000
00000000F00000
00000001F80000
00000001F80000
00000003FC0000
00000003FE0000
00000007FE0000
0000000FFF0000
0000000FFF0000
0000001FFF8000
0000001FFF8000
0000003FFFC000
0000003FFFE000
FF80007FFFE000
FF8000FFFFF000
FF8000FFFFF000
FF8001FFFFF800
FF8001FFFFFC00
FF8003FFFFFC00
FF8003FFFFFE00
FF8007FFFFFE00
FF800FFFFFFF00
FF800FFFFFFF00
FF801FFFFFFF80
FF803FFFFFFFC0
FF800007FE0000
FF800007FE0000
FF800007FE0000
FF800007FE0000
FF800007FE0000
FF800007FE0000
FF800007FE0000
FF800007FE0000
FF800007FE0000
FF800007FE0000
FF800007FE0000
FF800007FE0000
FF800007FE0000
FF800007FC0000
FFC00007FC0000
FFC00007FC0000
7FC0000FFC0000
7FE0000FFC0000
7FF0001FF80000
3FF8003FF80000
3FFC00FFF00000
1FFF83FFF00000
1FFFFFFFE00000
0FFFFFFFE00000
07FFFFFFC00000
03FFFFFF800000
01FFFFFF000000
00FFFFFE000000
003FFFF8000000
001FFFE0000000
0003FF00000000
ENDCHAR
STARTCHAR 0072
ENCODING 114
SWIDTH 983 0
DWIDTH 56 0
BBX 55 47 0 -5
BITMAP
00000040000000
000000C0000000
000003C0000000
000007C0000000
00001FC0000000
00007FC0000000
0000FFC0000000
0003FFC0000000
000FFFC0000000
003FFFC0000000
007FFFC0000000
01FFFFFFFF8000
07FFFFFFFFF000
1FFFFFFFFFFC00
3FFFFFFFFFFF00
FFFFFFFFFFFF80
1FFFFFFFFFFFC0
0FFFFFFFFFFFE0
03FFFFFFFFFFF0
00FFFFFFFFFFF0
007FFFC0007FF8
001FFFC0001FF8
0007FFC0000FFC
0001FFC00007FC
0000FFC00007FE
00003FC00003FE
00000FC00003FE
000003C00003FE
000001C00003FE
000000400003FE
000000000003FE
000000000003FE
000000000003FE
000000000007FE
000000000007FC
00000000000FFC
00000000001FFC
00000000007FF8
0000000003FFF8
0001FFFFFFFFF0
0001FFFFFFFFE0
0001FFFFFFFFC0
0001FFFFFFFF80
0001FFFFFFFF00
0001FFFFFFFE00
0001FFFFFFF800
0001FFFFFFC000
ENDCHAR
STARTCHAR 0073
ENCODING 115
SWIDTH 983 0
DWIDTH 56 0
BBX 55 43 0 -4
BITMAP
00000FFFF00000
0000FFFFFF0000
0007FFFFFFC000
001FFFFFFFF000
007FFFFFFFFC00
00FFFFFFFFFF00
03FFFFFFFFFF80
07FFFFFFFFFFC0
0FFFFFFFFFFFE0
1FFFFFFFFFFFF0
1FFFFFFFFFFFF8
3FFFFFFFFFFFF8
3FFFFFFFFFFFFC
7FFFFFFFFFFFFC
7FFFFFFFFFFFFE
7FFFFFFFFFFFFE
FFFFFFFFFFFFFE
FFFFFFFFFFFFFE
FFFFFFFFFFFFFE
FFFFFFFFFFFFFE
7FFFFFFFFFFFFE
7FFFFFFFFFFFFE
7FFFFFFFFFFFFC
3FFFFFFFFFFFFC
3FFFFFFFFFFFF8
1FFFFFFFFFFFF8
1FFFFFFFFFFFF0
0FFFFFFFFFFFE0
07FFFFFFFFFFC0
03FFFFFFFFFF80
01FFFFFFFFFF00
007FFFFFFFFC00
001FFFFFFFF000
0007FFFFFFC000
0001FFFFFE0000
00001FFFE00000
00000FF0000000
00000FE0000000
00001FC0000000
00001F80000000
00007E00000000
0000F000000000
00030000000000
ENDCHAR
STARTCHAR 0074
ENCODING 116
SWIDTH 983 0
DWIDTH 56 0
BBX 55 46 0 -5
BITMAP
3FFFFFFFFFFFFC
7FFFFFFFFFFFFE
FFFFFFFFFFFFFE
FFFFFFFFFFFFFE
FFFFFFFFFFFFFE
FFFFFFFFFFFFFE
FFFFFFFFFFFFFE
FFFFFFFFFFFFFE
FFFFFFFFFFFFFE
FFFFFFFFFFFFFE
FFFFFFFFFFFFFE
FFFFFFFFFFFFFE
FFFFFFFFFFFFFE
FFFFFFFFFFFFFE
FFFFFFFFFFFFFE
FFFFFFFFFFFFFE
FFFFFFFFFFFFFE
FFFFFFFFFFFFFE
FFFFFFFFFFFFFE
FFFFFFFFFFFFFE
FFFFFFFFFFFFFE
FFFFFFFFFFFFFE
FFFFFFFFFFFFFE
FFFFFFFFFFFFFE
FFFFFFFFFFFFFE
FFFFFFFFFFFFFE
FFFFFFFFFFFFFE
FFFFFFFFFFFFFE
FFFFFFFFFFFFFE
FFFFFFFFFFFFFE
FFFFFFFFFFFFFE
FFFFFFFFFFFFFE
FFFFFFFFFFFFFE
7FFFFFFFFFFFFE
3FFFFFFFFFFFFC
000000FE000000
000001FC000000
000001F8000000
000003F0000000
000003E0000000
00000780000000
00000700000000
00000E00000000
00000C00000000
00000800000000
00001000000000
ENDCHAR
STARTCHAR 0075
ENCODING 117
SWIDTH 983 0
DWIDTH 56 0
BBX 55 43 0 -3
BITMAP
00000038000000
00003FFFF80000
0001FFFFFF0000
000FFFFFFFE000
003FFFFFFFF800
007FFFFFFFFE00
01FFFFFFFFFF00
03FFFFFFFFFF80
07FFFFFFFFFFE0
0FFFFFFFFFFFE0
1FFFFFFFFFFFF0
3FFFFFFFFFFFF8
3FFFFFFFFFFFFC
7FFFFFFFFFFFFC
7FFFFFFFFFFFFC
7FFFFFFFFFFFFE
FFFFFFFFFFFFFE
FFFFFFFFFFFFFE
FFFFFFFFFFFFFE
FFFFFFFFFFFFFE
FFFFFFFFFFFFFE
FFFFFFFFFFFFFE
7FFFFFFFFFFFFE
7FFFFFFFFFFFFC
3FFFFFFFFFFFFC
3FFFFFFFFFFFF8
1FFFFFFFFFFFF8
0FFFFFFFFFFFF0
0FFFFFFFFFFFE0
07FFFFFFFFFFC0
01FFFFFFFFFF80
00FFFFFFFFFF00
003FFFFFFFFC00
000FFFFFFFF800
0003FFFFFFE000
00007FFFFF0000
000007FFF00000
0000000FF00000
00000007F00000
00000003F00000
00000001F80000
000000007C0000
000000000F8000
ENDCHAR
STARTCHAR 0076
ENCODING 118
SWIDTH 983 0
DWIDTH 56 0
BBX 55 46 0 -5
BITMAP
3FFFFFFFFFFFFC
7FFFFFFFFFFFFE
7FFFFFFFFFFFFE
FFFFFFFFFFFFFE
FFFFFFFFFFFFFE
FFFFFFFFFFFFFE
FFFFFFFFFFFFFE
FFFFFFFFFFFFFE
FFFFFFFFFFFFFE
FFFFFFFFFFFFFE
FFFFFFFFFFFFFE
FFFFFFFFFFFFFE
FFFFFFFFFFFFFE
FFFFFFFFFFFFFE
FFFFFFFFFFFFFE
FFFFFFFFFFFFFE
FFFFFFFFFFFFFE
FFFFFFFFFFFFFE
FFFFFFFFFFFFFE
FFFFFFFFFFFFFE
FFFFFFFFFFFFFE
FFFFFFFFFFFFFE
FFFFFFFFFFFFFE
FFFFFFFFFFFFFE
FFFFFFFFFFFFFE
FFFFFFFFFFFFFE
FFFFFFFFFFFFFE
FFFFFFFFFFFFFE
FFFFFFFFFFFFFE
FFFFFFFFFFFFFE
FFFFFFFFFFFFFE
FFFFFFFFFFFFFE
FFFFFFFFFFFFFE
7FFFFFFFFFFFFE
3FFFFFFFFFFFFC
000000FF000000
0000007F000000
0000003F800000
0000000F800000
00000007C00000
00000003C00000
00000001E00000
00000000E00000
00000000300000
00000000100000
00000000080000
ENDCHAR
STARTCHAR 0077
ENCODING 119
SWIDTH 983 0
DWIDTH 56 0
BBX 55 54 0 -9
BITMAP
0000007E000000
000000FF000000
000001FF800000
000001FF800000
000003FF800000
000003FF800000
003C03FF807C00
007F07FF80FE00
00FFBFFFE1FF00
01FFFFFFFBFF00
01FFFFFFFFFF80
01FFFFFFFFFF80
01FFFFFFFFFF80
01FFFFFFFFFF00
00FFFFFFFFFF00
007FFFFFFFFE00
003FFFFFFFFC00
007FFFFFFFF800
007FFF83FFF800
00FFFE00FFF800
00FFFC003FF800
00FFF8001FFC00
1FFFF0001FFFF8
3FFFF0000FFFFC
7FFFE0000FFFFE
7FFFE0000FFFFE
FFFFE00007FFFE
FFFFE00007FFFE
7FFFE0000FFFFE
7FFFE0000FFFFE
3FFFF0000FFFFC
1FFFF0001FFFF8
00FFF8001FF800
007FFC003FF800
007FFE00FFF000
003FFFC3FFF000
003FFFFFFFF800
003FFFFFFFFC00
007FFFFFFFFE00
00FFFFFFFFFF00
01FFFFFFFFFF00
01FFFFFFFFFF80
01FFFFFFFFFF80
01FFFFFFE7FF80
01FFC7FF83FF00
00FF83FF81FF00
007F03FF80FE00
003C03FF807800
000003FF800000
000003FF800000
000001FF800000
000001FF800000
000000FF000000
0000007E000000
ENDCHAR
STARTCHAR 0078
ENCODING 120
SWIDTH 983 0
DWIDTH 56 0
BBX 55 46 0 -5
BITMAP
000E0000000000
078F0000000000
079F0000000000
07FF0000000000
07FFB800000000
03FFF800000000
37FFFC00000000
7FC7F800000000
FF83F000000000
7F01F003E00000
3F01F003F01800
0F01FC07F03E00
0F01FC07F87F00
3F83FE07FCFF00
7FFFFC07FFFF00
7FFFE00FFFFF00
3FFFC7DFFFFE00
11FFCFFFFFFE00
01FFCFFFFFFC00
01E3CFFFFFFE00
01E18FFFFFFFFC
00C00FFFE1FFFE
000007FF807FFE
000001FF003FFE
000003FE003FFE
000003FE001FFC
000003FE001FF8
000007FE001FC0
00001FFE001F80
00001FFE003F80
00003FFF003FC0
00003FFF007FF0
00003FFFC0FFF8
00001FFFFFFFF8
00000F7FFFFFFC
0000003FFFFFFC
0000003FFFFFF8
0000003FFFF1F0
0000003FFFF060
0000007FFFF000
0000007F8FF000
0000007F87F000
0000003F07F000
0000001E07F000
0000000003E000
0000000000C000
ENDCHAR
STARTCHAR 0079
ENCODING 121
SWIDTH 983 0
DWIDTH 56 0
BBX 55 48 0 -5
BITMAP
00003FF0000000
0001FFFC007F00
0003FFFE01FFC0
0007FFFF83FFF0
000FFFFFC3FFF8
001FFE0027FE00
003FFC0007F800
007FFC0007F800
00FFFC0007FC3E
00FFFC000FFFFC
01FFFE000FFFF8
01FFFF000FFFF8
07FFFF801FFFF0
3FFBFFC01FFFE0
7FE07FE03FFF80
FFE03FF07FFE00
7FE01FF87FFE00
3FE007FCFFFE00
1FC003FFFFFE00
0FC001FFFFC100
07C000FFFF0000
0180003FFC0000
0000003FF80000
0000007FF00000
000000FFF80000
000003FFFC0000
000007FFFE0000
00000FFFFF0000
00001FFFFF8000
00007FFCFFC000
0000FFF07FF000
0001FFE03FF800
0003FFC01FFC00
0007FF800FFE00
001FFF0007FF00
003FFE0003FF80
007FFC0003FFC0
00FFF80001FFE0
03FFF00000FFF0
07FFE000007FF8
0FFFC000003FFC
0FFF8000001FFE
0FFF0000000FFE
0FFE00000007FC
0FFC00000007F8
07F800000003E0
03F000000001C0
00000000000080
ENDCHAR
STARTCHAR 007A
ENCODING 122
SWIDTH 983 0
DWIDTH 56 0
BBX 55 55 0 -9
BITMAP
00000000200000
00000000400000
00000000C00000
00000001800000
00000003800000
00000007800000
0000000F800000
0000001F800000
0000003F000000
0000003F000000
0000007F000000
0000007F000000
0000007F000000
0000007E000000
000000FE000000
000000FE000000
000000FE000000
000000FC000000
000000FC000000
000001FC000000
000001FC000000
000001FC000002
000001F800001C
000003F80003F8
007C03F8007FF0
03FF83F807FFE0
0FFFC3F0FFFFC0
1FFFE3FFFFFF80
3FFFF7FFFFFF00
3FCFFFFFFFFE00
7F03FFFFFFF000
7E03FFFFFF0000
FE03FFFFE00000
FE07FFFE000000
FF1FFFE0000000
7FFFEFC0000000
7FFFCFF0000000
3FFF9FF8000000
1FFF3FFC000000
0FFC7FFC000000
00C0FFFE000000
0000FFFE000000
0000FC3E000000
0001F83E000000
0001F83E000000
0001F83E000000
0001F83E000000
0001F87E000000
0001FCFC000000
0001FFFC000000
0000FFF8000000
0000FFF8000000
00007FF0000000
00003FE0000000
00001F80000000
ENDCHAR
STARTCHAR 007B
ENCODING 123
SWIDTH 983 0
DWIDTH 56 0
BBX 55 52 0 -8
BITMAP
000000000FFE00
0000000007F000
0000000007F000
0000000003FC00
0000000003FE00
0000000003FF00
0000000001BF80
00000000011F80
00000000010FC0
000000000107E0
000000000003E0
000000000003F0
000000000001F8
000000000000F8
000000000000F8
0000000000007C
0000000000007C
0000000000007C
0000000000003E
0000000000003E
0000000000003E
0000000000003E
0000000000003E
0000000000003E
F800000000003E
F800000000003E
F800000000003E
7800000000003E
7C00000000003E
7C00000000003E
7C00000000007C
7C00000000007C
3E00000000007C
3E0000000000FC
3F0000000000F8
1F0000000001F8
1F8000000001F0
0FC000000003F0
0FC000000007E0
07E00000000FE0
03F00000001FC0
03F80000003F80
01FC0000007F00
00FF000001FE00
007FC00003FC00
003FF0001FF800
000FFF81FFF000
0007FFFFFFC000
0001FFFFFF8000
00007FFFFC0000
00000FFFF00000
0000003C000000
ENDCHAR
STARTCHAR 007C
ENCODING 124
SWIDTH 983 0
DWIDTH 56 0
BBX 55 52 0 -8
BITMAP
007FE000000000
001FE000000000
001FC000000000
003FC000000000
007FC000000000
00FF8000000000
01FD8000000000
03F98000000000
03F10000000000
07E10000000000
0FC00000000000
0F800000000000
1F800000000000
1F000000000000
3F000000000000
3E000000000000
3E000000000000
7C000000000000
7C000000000000
7C000000000000
7C000000000000
78000000000000
F8000000000000
F8000000000000
F800000000003E
F800000000003E
F800000000003E
7800000000003E
7C00000000003E
7C00000000003E
7C00000000003C
7C00000000007C
3E00000000007C
3E0000000000FC
3F0000000000F8
1F0000000001F8
1F8000000001F0
0F8000000003F0
0FC000000007E0
07E000000007E0
07F00000000FC0
03F80000001F80
01FC0000007F00
00FF000000FE00
007FC00003FE00
003FF0000FFC00
000FFF00FFF000
0007FFFFFFE000
0001FFFFFF8000
00007FFFFE0000
00001FFFF00000
000001FE000000
ENDCHAR
STARTCHAR 007D
ENCODING 125
SWIDTH 491 0
DWIDTH 28 0
BBX 0 0 0 0
BITMAP
ENDCHAR
STARTCHAR 007E
ENCODING 126
SWIDTH 491 0
DWIDTH 28 0
BBX 0 0 0 0
BITMAP
ENDCHAR
STARTCHAR 00A0
ENCODING 160
SWIDTH 245 0
DWIDTH 14 0
BBX 0 0 0 0
BITMAP
ENDCHAR
STARTCHAR 00A1
ENCODING 161
SWIDTH 333 0
DWIDTH 19 0
BBX 0 0 0 0
BITMAP
ENDCHAR
STARTCHAR 00A2
ENCODING 162
SWIDTH 561 0
DWIDTH 32 0
BBX 0 0 0 0
BITMAP
ENDCHAR
STARTCHAR 00A3
ENCODING 163
SWIDTH 491 0
DWIDTH 28 0
BBX 0 0 0 0
BITMAP
ENDCHAR
STARTCHAR 00A4
ENCODING 164
SWIDTH 491 0
DWIDTH 28 0
BBX 0 0 0 0
BITMAP
ENDCHAR
STARTCHAR 00A5
ENCODING 165
SWIDTH 614 0
DWIDTH 35 0
BBX 0 0 0 0
BITMAP
ENDCHAR
STARTCHAR 00A6
ENCODING 166
SWIDTH 491 0
DWIDTH 28 0
BBX 0 0 0 0
BITMAP
ENDCHAR
STARTCHAR 00A7
ENCODING 167
SWIDTH 491 0
DWIDTH 28 0
BBX 0 0 0 0
BITMAP
ENDCHAR
STARTCHAR 00A8
ENCODING 168
SWIDTH 509 0
DWIDTH 29 0
BBX 0 0 0 0
BITMAP
ENDCHAR
STARTCHAR 00A9
ENCODING 169
SWIDTH 825 0
DWIDTH 47 0
BBX 0 0 0 0
BITMAP
ENDCHAR
STARTCHAR 00AA
ENCODING 170
SWIDTH 316 0
DWIDTH 18 0
BBX 0 0 0 0
BITMAP
ENDCHAR
STARTCHAR 00AB
ENCODING 171
SWIDTH 456 0
DWIDTH 26 0
BBX 0 0 0 0
BITMAP
ENDCHAR
STARTCHAR 00AC
ENCODING 172
SWIDTH 491 0
DWIDTH 28 0
BBX 0 0 0 0
BITMAP
ENDCHAR
STARTCHAR 00AD
ENCODING 173
SWIDTH 983 0
DWIDTH 56 0
BBX 55 55 0 -9
BITMAP
00000038000000
00000FFFE00000
00007FFFFC0000
0001FFFFFF0000
0007FE007FC000
000FE0000FF000
001F800001F800
007E000000FC00
00FC0000003E00
01F80000001F00
01F00000000F80
03F800000C07C0
07DC00001C03E0
0F8E00003C01E0
0F0700007C00F0
1E038000FC00F0
1E01C001FC0078
3C00E003FC0078
3C007003FC003C
38003807FC003C
7800000FFC001C
78007FFFFC001C
78007FFFFC001E
70007FFFFC001E
70007FFFFC001E
70007FFFFC000E
F0007FFFFC000E
F0007FFFFC000E
F0007FFFFC000E
F0007FFFFC000E
70007FFFFC000E
70007FFFFC001E
70007FFFFC001E
78007FFFFC001E
78003FFFFC001C
3800000FFC003C
3C000007FC003C
3C000003FC0038
1C000001FC8078
1E000000FC8078
1F0000007CC0F0
0F0000003CE1F0
078000001C71E0
07C000001C3BC0
03E000000C1FC0
01F00000000F80
00F80000001F00
007C0000007E00
003F000000FC00
001FC00003F800
000FF0001FE000
0003FF01FFC000
0000FFFFFF0000
00003FFFFC0000
000007FFC00000
ENDCHAR
STARTCHAR 00AE
ENCODING 174
SWIDTH 825 0
DWIDTH 47 0
BBX 0 0 0 0
BITMAP
ENDCHAR
STARTCHAR 00AF
ENCODING 175
SWIDTH 333 0
DWIDTH 19 0
BBX 0 0 0 0
BITMAP
ENDCHAR
STARTCHAR 00B0
ENCODING 176
SWIDTH 333 0
DWIDTH 19 0
BBX 0 0 0 0
BITMAP
ENDCHAR
STARTCHAR 00B1
ENCODING 177
SWIDTH 491 0
DWIDTH 28 0
BBX 0 0 0 0
BITMAP
ENDCHAR
STARTCHAR 00B2
ENCODING 178
SWIDTH 491 0
DWIDTH 28 0
BBX 0 0 0 0
BITMAP
ENDCHAR
STARTCHAR 00B3
ENCODING 179
SWIDTH 491 0
DWIDTH 28 0
BBX 0 0 0 0
BITMAP
ENDCHAR
STARTCHAR 00B4
ENCODING 180
SWIDTH 509 0
DWIDTH 29 0
BBX 0 0 0 0
BITMAP
ENDCHAR
STARTCHAR 00B5
ENCODING 181
SWIDTH 579 0
DWIDTH 33 0
BBX 0 0 0 0
BITMAP
ENDCHAR
STARTCHAR 00B6
ENCODING 182
SWIDTH 509 0
DWIDTH 29 0
BBX 0 0 0 0
BITMAP
ENDCHAR
STARTCHAR 00B7
ENCODING 183
SWIDTH 245 0
DWIDTH 14 0
BBX 0 0 0 0
BITMAP
ENDCHAR
STARTCHAR 00B8
ENCODING 184
SWIDTH 509 0
DWIDTH 29 0
BBX 0 0 0 0
BITMAP
ENDCHAR
STARTCHAR 00B9
ENCODING 185
SWIDTH 491 0
DWIDTH 28 0
BBX 0 0 0 0
BITMAP
ENDCHAR
STARTCHAR 00BA
ENCODING 186
SWIDTH 351 0
DWIDTH 20 0
BBX 0 0 0 0
BITMAP
ENDCHAR
STARTCHAR 00BB
ENCODING 187
SWIDTH 456 0
DWIDTH 26 0
BBX 0 0 0 0
BITMAP
ENDCHAR
STARTCHAR 00BC
ENCODING 188
SWIDTH 842 0
DWIDTH 48 0
BBX 0 0 0 0
BITMAP
ENDCHAR
STARTCHAR 00BD
ENCODING 189
SWIDTH 965 0
DWIDTH 55 0
BBX 0 0 0 0
BITMAP
ENDCHAR
STARTCHAR 00BE
ENCODING 190
SWIDTH 842 0
DWIDTH 48 0
BBX 0 0 0 0
BITMAP
ENDCHAR
STARTCHAR 00BF
ENCODING 191
SWIDTH 368 0
DWIDTH 21 0
BBX 0 0 0 0
BITMAP
ENDCHAR
STARTCHAR 00C0
ENCODING 192
SWIDTH 755 0
DWIDTH 43 0
BBX 0 0 0 0
BITMAP
ENDCHAR
STARTCHAR 00C1
ENCODING 193
SWIDTH 755 0
DWIDTH 43 0
BBX 0 0 0 0
BITMAP
ENDCHAR
STARTCHAR 00C2
ENCODING 194
SWIDTH 755 0
DWIDTH 43 0
BBX 0 0 0 0
BITMAP
ENDCHAR
STARTCHAR 00C3
ENCODING 195
SWIDTH 755 0
DWIDTH 43 0
BBX 0 0 0 0
BITMAP
ENDCHAR
STARTCHAR 00C4
ENCODING 196
SWIDTH 755 0
DWIDTH 43 0
BBX 0 0 0 0
BITMAP
ENDCHAR
STARTCHAR 00C5
ENCODING 197
SWIDTH 755 0
DWIDTH 43 0
BBX 0 0 0 0
BITMAP
ENDCHAR
STARTCHAR 00C6
ENCODING 198
SWIDTH 1036 0
DWIDTH 59 0
BBX 0 0 0 0
BITMAP
ENDCHAR
STARTCHAR 00C7
ENCODING 199
SWIDTH 684 0
DWIDTH 39 0
BBX 0 0 0 0
BITMAP
ENDCHAR
STARTCHAR 00C8
ENCODING 200
SWIDTH 561 0
DWIDTH 32 0
BBX 0 0 0 0
BITMAP
ENDCHAR
STARTCHAR 00C9
ENCODING 201
SWIDTH 561 0
DWIDTH 32 0
BBX 0 0 0 0
BITMAP
ENDCHAR
STARTCHAR 00CA
ENCODING 202
SWIDTH 561 0
DWIDTH 32 0
BBX 0 0 0 0
BITMAP
ENDCHAR
STARTCHAR 00CB
ENCODING 203
SWIDTH 561 0
DWIDTH 32 0
BBX 0 0 0 0
BITMAP
ENDCHAR
STARTCHAR 00CC
ENCODING 204
SWIDTH 316 0
DWIDTH 18 0
BBX 0 0 0 0
BITMAP
ENDCHAR
STARTCHAR 00CD
ENCODING 205
SWIDTH 316 0
DWIDTH 18 0
BBX 0 0 0 0
BITMAP
ENDCHAR
STARTCHAR 00CE
ENCODING 206
SWIDTH 316 0
DWIDTH 18 0
BBX 0 0 0 0
BITMAP
ENDCHAR
STARTCHAR 00CF
ENCODING 207
SWIDTH 316 0
DWIDTH 18 0
BBX 0 0 0 0
BITMAP
ENDCHAR
STARTCHAR 00D0
ENCODING 208
SWIDTH 737 0
DWIDTH 42 0
BBX 0 0 0 0
BITMAP
ENDCHAR
STARTCHAR 00D1
ENCODING 209
SWIDTH 755 0
DWIDTH 43 0
BBX 0 0 0 0
BITMAP
ENDCHAR
STARTCHAR 00D2
ENCODING 210
SWIDTH 790 0
DWIDTH 45 0
BBX 0 0 0 0
BITMAP
ENDCHAR
STARTCHAR 00D3
ENCODING 211
SWIDTH 790 0
DWIDTH 45 0
BBX 0 0 0 0
BITMAP
ENDCHAR
STARTCHAR 00D4
ENCODING 212
SWIDTH 790 0
DWIDTH 45 0
BBX 0 0 0 0
BITMAP
ENDCHAR
STARTCHAR 00D5
ENCODING 213
SWIDTH 790 0
DWIDTH 45 0
BBX 0 0 0 0
BITMAP
ENDCHAR
STARTCHAR 00D6
ENCODING 214
SWIDTH 790 0
DWIDTH 45 0
BBX 0 0 0 0
BITMAP
ENDCHAR
STARTCHAR 00D7
ENCODING 215
SWIDTH 491 0
DWIDTH 28 0
BBX 0 0 0 0
BITMAP
ENDCHAR
STARTCHAR 00D8
ENCODING 216
SWIDTH 790 0
DWIDTH 45 0
BBX 0 0 0 0
BITMAP
ENDCHAR
STARTCHAR 00D9
ENCODING 217
SWIDTH 737 0
DWIDTH 42 0
BBX 0 0 0 0
BITMAP
ENDCHAR
STARTCHAR 00DA
ENCODING 218
SWIDTH 737 0
DWIDTH 42 0
BBX 0 0 0 0
BITMAP
ENDCHAR
STARTCHAR 00DB
ENCODING 219
SWIDTH 737 0
DWIDTH 42 0
BBX 0 0 0 0
BITMAP
ENDCHAR
STARTCHAR 00DC
ENCODING 220
SWIDTH 737 0
DWIDTH 42 0
BBX 0 0 0 0
BITMAP
ENDCHAR
STARTCHAR 00DD
ENCODING 221
SWIDTH 597 0
DWIDTH 34 0
BBX 0 0 0 0
BITMAP
ENDCHAR
STARTCHAR 00DE
ENCODING 222
SWIDTH 544 0
DWIDTH 31 0
BBX 0 0 0 0
BITMAP
ENDCHAR
STARTCHAR 00DF
ENCODING 223
SWIDTH 614 0
DWIDTH 35 0
BBX 0 0 0 0
BITMAP
ENDCHAR
STARTCHAR 00E0
ENCODING 224
SWIDTH 456 0
DWIDTH 26 0
BBX 0 0 0 0
BITMAP
ENDCHAR
STARTCHAR 00E1
ENCODING 225
SWIDTH 456 0
DWIDTH 26 0
BBX 0 0 0 0
BITMAP
ENDCHAR
STARTCHAR 00E2
ENCODING 226
SWIDTH 456 0
DWIDTH 26 0
BBX 0 0 0 0
BITMAP
ENDCHAR
STARTCHAR 00E3
ENCODING 227
SWIDTH 456 0
DWIDTH 26 0
BBX 0 0 0 0
BITMAP
ENDCHAR
STARTCHAR 00E4
ENCODING 228
SWIDTH 456 0
DWIDTH 26 0
BBX 0 0 0 0
BITMAP
ENDCHAR
STARTCHAR 00E5
ENCODING 229
SWIDTH 456 0
DWIDTH 26 0
BBX 0 0 0 0
BITMAP
ENDCHAR
STARTCHAR 00E6
ENCODING 230
SWIDTH 702 0
DWIDTH 40 0
BBX 0 0 0 0
BITMAP
ENDCHAR
STARTCHAR 00E7
ENCODING 231
SWIDTH 439 0
DWIDTH 25 0
BBX 0 0 0 0
BITMAP
ENDCHAR
STARTCHAR 00E8
ENCODING 232
SWIDTH 439 0
DWIDTH 25 0
BBX 0 0 0 0
BITMAP
ENDCHAR
STARTCHAR 00E9
ENCODING 233
SWIDTH 439 0
DWIDTH 25 0
BBX 0 0 0 0
BITMAP
ENDCHAR
STARTCHAR 00EA
ENCODING 234
SWIDTH 439 0
DWIDTH 25 0
BBX 0 0 0 0
BITMAP
ENDCHAR
STARTCHAR 00EB
ENCODING 235
SWIDTH 439 0
DWIDTH 25 0
BBX 0 0 0 0
BITMAP
ENDCHAR
STARTCHAR 00EC
ENCODING 236
SWIDTH 245 0
DWIDTH 14 0
BBX 0 0 0 0
BITMAP
ENDCHAR
STARTCHAR 00ED
ENCODING 237
SWIDTH 245 0
DWIDTH 14 0
BBX 0 0 0 0
BITMAP
ENDCHAR
STARTCHAR 00EE
ENCODING 238
SWIDTH 245 0
DWIDTH 14 0
BBX 0 0 0 0
BITMAP
ENDCHAR
STARTCHAR 00EF
ENCODING 239
SWIDTH 245 0
DWIDTH 14 0
BBX 0 0 0 0
BITMAP
ENDCHAR
STARTCHAR 00F0
ENCODING 240
SWIDTH 561 0
DWIDTH 32 0
BBX 0 0 0 0
BITMAP
ENDCHAR
STARTCHAR 00F1
ENCODING 241
SWIDTH 544 0
DWIDTH 31 0
BBX 0 0 0 0
BITMAP
ENDCHAR
STARTCHAR 00F2
ENCODING 242
SWIDTH 491 0
DWIDTH 28 0
BBX 0 0 0 0
BITMAP
ENDCHAR
STARTCHAR 00F3
ENCODING 243
SWIDTH 491 0
DWIDTH 28 0
BBX 0 0 0 0
BITMAP
ENDCHAR
STARTCHAR 00F4
ENCODING 244
SWIDTH 491 0
DWIDTH 28 0
BBX 0 0 0 0
BITMAP
ENDCHAR
STARTCHAR 00F5
ENCODING 245
SWIDTH 491 0
DWIDTH 28 0
BBX 0 0 0 0
BITMAP
ENDCHAR
STARTCHAR 00F6
ENCODING 246
SWIDTH 491 0
DWIDTH 28 0
BBX 0 0 0 0
BITMAP
ENDCHAR
STARTCHAR 00F7
ENCODING 247
SWIDTH 491 0
DWIDTH 28 0
BBX 0 0 0 0
BITMAP
ENDCHAR
STARTCHAR 00F8
ENCODING 248
SWIDTH 491 0
DWIDTH 28 0
BBX 0 0 0 0
BITMAP
ENDCHAR
STARTCHAR 00F9
ENCODING 249
SWIDTH 509 0
DWIDTH 29 0
BBX 0 0 0 0
BITMAP
ENDCHAR
STARTCHAR 00FA
ENCODING 250
SWIDTH 509 0
DWIDTH 29 0
BBX 0 0 0 0
BITMAP
ENDCHAR
STARTCHAR 00FB
ENCODING 251
SWIDTH 509 0
DWIDTH 29 0
BBX 0 0 0 0
BITMAP
ENDCHAR
STARTCHAR 00FC
ENCODING 252
SWIDTH 509 0
DWIDTH 29 0
BBX 0 0 0 0
BITMAP
ENDCHAR
STARTCHAR 00FD
ENCODING 253
SWIDTH 421 0
DWIDTH 24 0
BBX 0 0 0 0
BITMAP
ENDCHAR
STARTCHAR 00FE
ENCODING 254
SWIDTH 491 0
DWIDTH 28 0
BBX 0 0 0 0
BITMAP
ENDCHAR
STARTCHAR 00FF
ENCODING 255
SWIDTH 421 0
DWIDTH 24 0
BBX 0 0 0 0
BITMAP
ENDCHAR
STARTCHAR 0131
ENCODING 305
SWIDTH 245 0
DWIDTH 14 0
BBX 0 0 0 0
BITMAP
ENDCHAR
STARTCHAR 02C6
ENCODING 710
SWIDTH 509 0
DWIDTH 29 0
BBX 0 0 0 0
BITMAP
ENDCHAR
STARTCHAR 02C7
ENCODING 711
SWIDTH 509 0
DWIDTH 29 0
BBX 0 0 0 0
BITMAP
ENDCHAR
STARTCHAR 02C9
ENCODING 713
SWIDTH 509 0
DWIDTH 29 0
BBX 0 0 0 0
BITMAP
ENDCHAR
STARTCHAR 02D8
ENCODING 728
SWIDTH 509 0
DWIDTH 29 0
BBX 0 0 0 0
BITMAP
ENDCHAR
STARTCHAR 02D9
ENCODING 729
SWIDTH 509 0
DWIDTH 29 0
BBX 0 0 0 0
BITMAP
ENDCHAR
STARTCHAR 02DA
ENCODING 730
SWIDTH 509 0
DWIDTH 29 0
BBX 0 0 0 0
BITMAP
ENDCHAR
STARTCHAR 02DB
ENCODING 731
SWIDTH 509 0
DWIDTH 29 0
BBX 0 0 0 0
BITMAP
ENDCHAR
STARTCHAR 02DC
ENCODING 732
SWIDTH 509 0
DWIDTH 29 0
BBX 0 0 0 0
BITMAP
ENDCHAR
STARTCHAR 02DD
ENCODING 733
SWIDTH 509 0
DWIDTH 29 0
BBX 0 0 0 0
BITMAP
ENDCHAR
STARTCHAR 037E
ENCODING 894
SWIDTH 983 0
DWIDTH 56 0
BBX 55 55 0 -9
BITMAP
0000003C000000
0000003C000000
0000003C000000
0000003C000000
0000003C000000
0000003C000000
0000003C000000
0000003C000000
0000003C000000
0000003C000000
0000003C000000
0000003C000000
0000003C000000
0000003C000000
0000003C000000
0000003C000000
0000003C000000
0000003C000000
0000003C000000
0000003C000000
0000003C000000
0000003C000000
0000003C000000
0000003C000000
0000003C000000
0000003C000000
FFFFFFFFFFFFFE
FFFFFFFFFFFFFE
FFFFFFFFFFFFFE
FFFFFFFFFFFFFE
0000003C000000
0000003C000000
0000003C000000
0000003C000000
0000003C000000
0000003C000000
0000003C000000
0000003C000000
0000003C000000
0000003C000000
0000003C000000
0000003C000000
0000003C000000
0000003C000000
0000003C000000
0000003C000000
0000003C000000
0000003C000000
0000003C000000
0000003C000000
0000003C000000
0000003C000000
0000003C000000
0000003C000000
0000003C000000
ENDCHAR
STARTCHAR 2013
ENCODING 8211
SWIDTH 544 0
DWIDTH 31 0
BBX 0 0 0 0
BITMAP
ENDCHAR
STARTCHAR 2014
ENCODING 8212
SWIDTH 1000 0
DWIDTH 57 0
BBX 0 0 0 0
BITMAP
ENDCHAR
STARTCHAR 2018
ENCODING 8216
SWIDTH 280 0
DWIDTH 16 0
BBX 0 0 0 0
BITMAP
ENDCHAR
STARTCHAR 2019
ENCODING 8217
SWIDTH 280 0
DWIDTH 16 0
BBX 0 0 0 0
BITMAP
ENDCHAR
STARTCHAR 201A
ENCODING 8218
SWIDTH 280 0
DWIDTH 16 0
BBX 0 0 0 0
BITMAP
ENDCHAR
STARTCHAR 201C
ENCODING 8220
SWIDTH 439 0
DWIDTH 25 0
BBX 0 0 0 0
BITMAP
ENDCHAR
STARTCHAR 201D
ENCODING 8221
SWIDTH 439 0
DWIDTH 25 0
BBX 0 0 0 0
BITMAP
ENDCHAR
STARTCHAR 201E
ENCODING 8222
SWIDTH 439 0
DWIDTH 25 0
BBX 0 0 0 0
BITMAP
ENDCHAR
STARTCHAR 2020
ENCODING 8224
SWIDTH 491 0
DWIDTH 28 0
BBX 0 0 0 0
BITMAP
ENDCHAR
STARTCHAR 2021
ENCODING 8225
SWIDTH 491 0
DWIDTH 28 0
BBX 0 0 0 0
BITMAP
ENDCHAR
STARTCHAR 2022
ENCODING 8226
SWIDTH 509 0
DWIDTH 29 0
BBX 0 0 0 0
BITMAP
ENDCHAR
STARTCHAR 2026
ENCODING 8230
SWIDTH 1000 0
DWIDTH 57 0
BBX 0 0 0 0
BITMAP
ENDCHAR
STARTCHAR 2039
ENCODING 8249
SWIDTH 316 0
DWIDTH 18 0
BBX 0 0 0 0
BITMAP
ENDCHAR
STARTCHAR 203A
ENCODING 8250
SWIDTH 316 0
DWIDTH 18 0
BBX 0 0 0 0
BITMAP
ENDCHAR
STARTCHAR 2044
ENCODING 8260
SWIDTH 175 0
DWIDTH 10 0
BBX 0 0 0 0
BITMAP
ENDCHAR
STARTCHAR 20A3
ENCODING 8355
SWIDTH 491 0
DWIDTH 28 0
BBX 0 0 0 0
BITMAP
ENDCHAR
STARTCHAR 20A4
ENCODING 8356
SWIDTH 491 0
DWIDTH 28 0
BBX 0 0 0 0
BITMAP
ENDCHAR
STARTCHAR 20A7
ENCODING 8359
SWIDTH 983 0
DWIDTH 56 0
BBX 0 0 0 0
BITMAP
ENDCHAR
STARTCHAR 20AC
ENCODING 8364
SWIDTH 491 0
DWIDTH 28 0
BBX 0 0 0 0
BITMAP
ENDCHAR
STARTCHAR 2116
ENCODING 8470
SWIDTH 1106 0
DWIDTH 63 0
BBX 0 0 0 0
BITMAP
ENDCHAR
STARTCHAR 2122
ENCODING 8482
SWIDTH 737 0
DWIDTH 42 0
BBX 0 0 0 0
BITMAP
ENDCHAR
STARTCHAR 2202
ENCODING 8706
SWIDTH 491 0
DWIDTH 28 0
BBX 0 0 0 0
BITMAP
ENDCHAR
STARTCHAR 2206
ENCODING 8710
SWIDTH 526 0
DWIDTH 30 0
BBX 0 0 0 0
BITMAP
ENDCHAR
STARTCHAR 220F
ENCODING 8719
SWIDTH 737 0
DWIDTH 42 0
BBX 0 0 0 0
BITMAP
ENDCHAR
STARTCHAR 2211
ENCODING 8721
SWIDTH 597 0
DWIDTH 34 0
BBX 0 0 0 0
BITMAP
ENDCHAR
STARTCHAR 2212
ENCODING 8722
SWIDTH 491 0
DWIDTH 28 0
BBX 0 0 0 0
BITMAP
ENDCHAR
STARTCHAR 2215
ENCODING 8725
SWIDTH 175 0
DWIDTH 10 0
BBX 0 0 0 0
BITMAP
ENDCHAR
STARTCHAR 2219
ENCODING 8729
SWIDTH 245 0
DWIDTH 14 0
BBX 0 0 0 0
BITMAP
ENDCHAR
STARTCHAR 221A
ENCODING 8730
SWIDTH 491 0
DWIDTH 28 0
BBX 0 0 0 0
BITMAP
ENDCHAR
STARTCHAR 221E
ENCODING 8734
SWIDTH 491 0
DWIDTH 28 0
BBX 0 0 0 0
BITMAP
ENDCHAR
STARTCHAR 222B
ENCODING 8747
SWIDTH 333 0
DWIDTH 19 0
BBX 0 0 0 0
BITMAP
ENDCHAR
STARTCHAR 2248
ENCODING 8776
SWIDTH 491 0
DWIDTH 28 0
BBX 0 0 0 0
BITMAP
ENDCHAR
STARTCHAR 2264
ENCODING 8804
SWIDTH 491 0
DWIDTH 28 0
BBX 0 0 0 0
BITMAP
ENDCHAR
STARTCHAR 2265
ENCODING 8805
SWIDTH 491 0
DWIDTH 28 0
BBX 0 0 0 0
BITMAP
ENDCHAR
STARTCHAR F001
ENCODING 61441
SWIDTH 526 0
DWIDTH 30 0
BBX 0 0 0 0
BITMAP
ENDCHAR
STARTCHAR F002
ENCODING 61442
SWIDTH 526 0
DWIDTH 30 0
BBX 0 0 0 0
BITMAP
ENDCHAR
STARTCHAR FB01
ENCODING 64257
SWIDTH 526 0
DWIDTH 30 0
BBX 0 0 0 0
BITMAP
ENDCHAR
STARTCHAR FB02
ENCODING 64258
SWIDTH 526 0
DWIDTH 30 0
BBX 0 0 0 0
BITMAP
ENDCHAR
ENDFONT
